<svg class="animated" id="freepik_stories-company" xmlns="http://www.w3.org/2000/svg" viewBox="0 0 500 500" version="1.1" xmlns:xlink="http://www.w3.org/1999/xlink" xmlns:svgjs="http://svgjs.com/svgjs"><style>svg#freepik_stories-company:not(.animated) .animable {opacity: 0;}svg#freepik_stories-company.animated #freepik--background-complete--inject-186 {animation: 1s 1 forwards cubic-bezier(.36,-0.01,.5,1.38) slideUp;animation-delay: 0s;}svg#freepik_stories-company.animated #freepik--Shadow--inject-186 {animation: 1s 1 forwards cubic-bezier(.36,-0.01,.5,1.38) lightSpeedLeft;animation-delay: 0s;}svg#freepik_stories-company.animated #freepik--Company--inject-186 {animation: 1s 1 forwards cubic-bezier(.36,-0.01,.5,1.38) slideRight;animation-delay: 0s;}svg#freepik_stories-company.animated #freepik--character-2--inject-186 {animation: 1s 1 forwards cubic-bezier(.36,-0.01,.5,1.38) lightSpeedLeft;animation-delay: 0s;}svg#freepik_stories-company.animated #freepik--character-1--inject-186 {animation: 1s 1 forwards cubic-bezier(.36,-0.01,.5,1.38) slideDown;animation-delay: 0s;}svg#freepik_stories-company.animated #freepik--Birds--inject-186 {animation: 1s 1 forwards cubic-bezier(.36,-0.01,.5,1.38) lightSpeedRight,1.5s Infinite  linear floating;animation-delay: 0s,1s;}            @keyframes slideUp {                0% {                    opacity: 0;                    transform: translateY(30px);                }                100% {                    opacity: 1;                    transform: inherit;                }            }                    @keyframes lightSpeedLeft {              from {                transform: translate3d(-50%, 0, 0) skewX(20deg);                opacity: 0;              }              60% {                transform: skewX(-10deg);                opacity: 1;              }              80% {                transform: skewX(2deg);              }              to {                opacity: 1;                transform: translate3d(0, 0, 0);              }            }                    @keyframes slideRight {                0% {                    opacity: 0;                    transform: translateX(30px);                }                100% {                    opacity: 1;                    transform: translateX(0);                }            }                    @keyframes slideDown {                0% {                    opacity: 0;                    transform: translateY(-30px);                }                100% {                    opacity: 1;                    transform: translateY(0);                }            }                    @keyframes lightSpeedRight {              from {                transform: translate3d(50%, 0, 0) skewX(-20deg);                opacity: 0;              }              60% {                transform: skewX(10deg);                opacity: 1;              }              80% {                transform: skewX(-2deg);              }              to {                opacity: 1;                transform: translate3d(0, 0, 0);              }            }                    @keyframes floating {                0% {                    opacity: 1;                    transform: translateY(0px);                }                50% {                    transform: translateY(-10px);                }                100% {                    opacity: 1;                    transform: translateY(0px);                }            }        </style><g id="freepik--background-complete--inject-186" class="animable" style="transform-origin: 250px 228.23px;"><rect x="416.78" y="398.49" width="33.12" height="0.25" style="fill: rgb(235, 235, 235); transform-origin: 433.34px 398.615px;" id="elbq3e2z5rwwm" class="animable"></rect><rect x="322.53" y="401.21" width="8.69" height="0.25" style="fill: rgb(235, 235, 235); transform-origin: 326.875px 401.335px;" id="el4om80c8szwo" class="animable"></rect><rect x="396.59" y="389.21" width="19.19" height="0.25" style="fill: rgb(235, 235, 235); transform-origin: 406.185px 389.335px;" id="elzps166d9e4d" class="animable"></rect><rect x="52.46" y="390.89" width="43.19" height="0.25" style="fill: rgb(235, 235, 235); transform-origin: 74.055px 391.015px;" id="els8kar83cixj" class="animable"></rect><rect x="104.56" y="390.89" width="6.33" height="0.25" style="fill: rgb(235, 235, 235); transform-origin: 107.725px 391.015px;" id="elxdeypnd09l" class="animable"></rect><rect x="131.47" y="395.11" width="93.68" height="0.25" style="fill: rgb(235, 235, 235); transform-origin: 178.31px 395.235px;" id="el8hcud9zf6g9" class="animable"></rect><path d="M237,337.8H43.91a5.71,5.71,0,0,1-5.7-5.71V60.66A5.71,5.71,0,0,1,43.91,55H237a5.71,5.71,0,0,1,5.71,5.71V332.09A5.71,5.71,0,0,1,237,337.8ZM43.91,55.2a5.46,5.46,0,0,0-5.45,5.46V332.09a5.46,5.46,0,0,0,5.45,5.46H237a5.47,5.47,0,0,0,5.46-5.46V60.66A5.47,5.47,0,0,0,237,55.2Z" style="fill: rgb(235, 235, 235); transform-origin: 140.46px 196.4px;" id="elekyzpj4tbn4" class="animable"></path><path d="M453.31,338.06H260.21a5.72,5.72,0,0,1-5.71-5.71V60.92a5.72,5.72,0,0,1,5.71-5.71h193.1A5.71,5.71,0,0,1,459,60.92V332.35A5.71,5.71,0,0,1,453.31,338.06ZM260.21,55.46a5.47,5.47,0,0,0-5.46,5.46V332.35a5.47,5.47,0,0,0,5.46,5.46h193.1a5.47,5.47,0,0,0,5.46-5.46V60.92a5.47,5.47,0,0,0-5.46-5.46Z" style="fill: rgb(235, 235, 235); transform-origin: 356.75px 196.635px;" id="elyom0v768i7" class="animable"></path><rect y="382.4" width="500" height="0.25" style="fill: rgb(235, 235, 235); transform-origin: 250px 382.525px;" id="elmdmt10w7zs9" class="animable"></rect><path d="M75.66,148h90.69c11.62,0,14.42-16.26,3.45-20.08l-.43-.14c12.14-10.12-14.49-31.44-43.42-1.92,2.26-9.84-23.46-6.28-31.32,7.15C91.83,124.19,67.31,139.51,75.66,148Z" style="fill: rgb(230, 230, 230); transform-origin: 125.321px 129.413px;" id="el2241eukvis1" class="animable"></path><path d="M318.23,107.45h54.38s12.75-4.8,11.1-17.52-20.9-2.12-20.9-2.12S368.64,70.06,350,75.1s-20.46,22.63-20.46,22.63S305.05,93.45,318.23,107.45Z" style="fill: rgb(235, 235, 235); transform-origin: 349.096px 90.8245px;" id="elftthp2zbpn" class="animable"></path><path d="M368.19,143.23h35.9s8.42-3.17,7.33-11.57-13.8-1.4-13.8-1.4,3.85-11.71-8.46-8.39a18.21,18.21,0,0,0-13.5,14.94S359.49,134,368.19,143.23Z" style="fill: rgb(235, 235, 235); transform-origin: 388.568px 132.254px;" id="el00fcbkqqo5sqc" class="animable"></path><path d="M361.29,325.21l-.1-10.62V314l-.09-9.47v-.6l-.09-9v-.59l-.08-8.57v-.56l-.08-8.18v-.52l-.08-7.82v-.49l-.07-7.47v-.48l-.06-6.18a4.5,4.5,0,0,1-1,.47l0,5.22-6.62,0,5.34-4.89a10.75,10.75,0,0,1-1.67.2l-4.4,4,.08-4.72a3.68,3.68,0,0,1-1-.6l-.12,6.48v.48l-.12,7.47v.51l-.15,7.79V277l-.14,8.16v.56l-.15,8.57v.59l-.16,9v.61l-.17,9.46v.64l-.18,10.61L349.16,371l12.76.15Zm-1.33-2-7.69-8.31h7.64Zm-.12-9.3h-7.61l7.55-7.94Zm.08-11.67-7.32-7.5,7.28,0Zm-.09-8.53-7.24,0,7.2-7.21Zm-.05-9.93-7-6.81,6.94,0Zm0-7.87-6.92,0,6.86-6.58Zm-.12-15.15,0,6.23-6.67-6.2Zm-7.52,1.42,6.67,6.22-6.76,0Zm-.1,7.3,6.76,0L351.89,276Zm-.14,9.11,7,6.82-7.06,0Zm-.1,7.86,7.09,0-7.19,7.18Zm-.14,9.93,7.33,7.53h-7.43Zm-.07,8.54H359l-7.56,7.9Zm-.05,10.46,7.69,8.34h-7.81Z" style="fill: rgb(235, 235, 235); transform-origin: 355.54px 312.45px;" id="elxa9zh7kmm1k" class="animable"></path><path d="M360.53,252.94l-.51,0-.37-.34-3,2.8a11.79,11.79,0,0,0,1.66-.2l1.25-1.14v.77a4.88,4.88,0,0,0,1-.47Zm-9.26.06,0,1.12a4.43,4.43,0,0,0,1,.6l0-1.72Z" style="fill: rgb(235, 235, 235); transform-origin: 355.915px 254px;" id="el1gpqmvdn9wq" class="animable"></path><path d="M362,252.11a1.8,1.8,0,0,1-.53,1.52l-.36.34a4.83,4.83,0,0,1-.6.41,4.88,4.88,0,0,1-1,.47,6.74,6.74,0,0,1-1.25.37,11.79,11.79,0,0,1-1.66.2h-.75a9.13,9.13,0,0,1-3.57-.72,4.43,4.43,0,0,1-1-.6l-.09-.07-.33-.32a1.66,1.66,0,0,1-.48-1.47l.76-4.26-2,0,7-3.55,7.29,3.32-2.05,0Z" style="fill: rgb(235, 235, 235); transform-origin: 356.285px 249.925px;" id="elkbxw6wz7aza" class="animable"></path><polygon points="394.12 257.45 394.39 371.02 402.63 371.02 450.53 371.02 458.77 371.02 459.13 257.45 394.12 257.45" style="fill: rgb(235, 235, 235); transform-origin: 426.625px 314.235px;" id="elp8m8due6wkm" class="animable"></polygon><polygon points="406.69 243 406.72 268.32 411.82 268.32 441.47 268.32 446.57 268.32 446.62 243 406.69 243" style="fill: rgb(235, 235, 235); transform-origin: 426.655px 255.66px;" id="ell65wth4zcmd" class="animable"></polygon><polygon points="406.64 268.32 398.22 268.32 398.21 260.74 406.63 260.74 406.64 268.32" style="fill: rgb(250, 250, 250); transform-origin: 402.425px 264.53px;" id="eli77qviax6yl" class="animable"></polygon><rect x="414.37" y="260.73" width="8.42" height="7.59" style="fill: rgb(250, 250, 250); transform-origin: 418.58px 264.525px;" id="eldsklcfvwnqr" class="animable"></rect><rect x="430.53" y="260.73" width="8.42" height="7.59" style="fill: rgb(250, 250, 250); transform-origin: 434.74px 264.525px;" id="elhow3ab04gcb" class="animable"></rect><polygon points="455.1 268.32 446.68 268.32 446.7 260.74 455.12 260.74 455.1 268.32" style="fill: rgb(240, 240, 240); transform-origin: 450.9px 264.53px;" id="ellzmwuyw91ie" class="animable"></polygon><polygon points="406.53 282.15 398.31 282.15 398.29 274.75 406.52 274.75 406.53 282.15" style="fill: rgb(240, 240, 240); transform-origin: 402.41px 278.45px;" id="elf7s8mf1i594" class="animable"></polygon><rect x="414.43" y="274.75" width="8.23" height="7.4" style="fill: rgb(240, 240, 240); transform-origin: 418.545px 278.45px;" id="el73r6e9x8712" class="animable"></rect><rect x="430.57" y="274.75" width="8.23" height="7.4" style="fill: rgb(250, 250, 250); transform-origin: 434.685px 278.45px;" id="el2alv0e9ixy4" class="animable"></rect><polygon points="454.92 282.15 446.69 282.15 446.71 274.75 454.94 274.75 454.92 282.15" style="fill: rgb(250, 250, 250); transform-origin: 450.815px 278.45px;" id="eluvmlais5hd" class="animable"></polygon><polygon points="406.46 295.63 398.43 295.63 398.41 288.41 406.45 288.41 406.46 295.63" style="fill: rgb(240, 240, 240); transform-origin: 402.435px 292.02px;" id="el6ad7v94tget" class="animable"></polygon><rect x="414.54" y="288.41" width="8.04" height="7.22" style="fill: rgb(250, 250, 250); transform-origin: 418.56px 292.02px;" id="el1ies4qm78ca" class="animable"></rect><rect x="430.65" y="288.41" width="8.04" height="7.22" style="fill: rgb(250, 250, 250); transform-origin: 434.67px 292.02px;" id="elifnhlwtxua" class="animable"></rect><rect x="414.16" y="249.72" width="8.58" height="7.74" style="fill: rgb(250, 250, 250); transform-origin: 418.45px 253.59px;" id="el8xf4kl4tsie" class="animable"></rect><rect x="430.33" y="249.72" width="8.59" height="7.74" style="fill: rgb(240, 240, 240); transform-origin: 434.625px 253.59px;" id="el033tvza72w6w" class="animable"></rect><polygon points="454.79 295.63 446.76 295.63 446.77 288.41 454.81 288.41 454.79 295.63" style="fill: rgb(240, 240, 240); transform-origin: 450.785px 292.02px;" id="el7xa1t1hfivk" class="animable"></polygon><polygon points="406.44 308.8 398.59 308.8 398.57 301.75 406.43 301.75 406.44 308.8" style="fill: rgb(250, 250, 250); transform-origin: 402.505px 305.275px;" id="el6bldp2brghi" class="animable"></polygon><rect x="414.68" y="301.75" width="7.85" height="7.05" style="fill: rgb(240, 240, 240); transform-origin: 418.605px 305.275px;" id="el733obj3yhxv" class="animable"></rect><polygon points="438.63 308.8 430.78 308.8 430.79 301.75 438.64 301.75 438.63 308.8" style="fill: rgb(240, 240, 240); transform-origin: 434.71px 305.275px;" id="elyhjlduhkai" class="animable"></polygon><polygon points="454.72 308.8 446.87 308.8 446.89 301.75 454.74 301.75 454.72 308.8" style="fill: rgb(250, 250, 250); transform-origin: 450.805px 305.275px;" id="el2mxhxgmlmfl" class="animable"></polygon><polygon points="406.79 323.6 398.04 323.6 398.02 315.75 406.78 315.75 406.79 323.6" style="fill: rgb(240, 240, 240); transform-origin: 402.405px 319.675px;" id="eljkc38dmeria" class="animable"></polygon><polygon points="422.85 323.6 414.11 323.6 414.1 315.75 422.86 315.75 422.85 323.6" style="fill: rgb(250, 250, 250); transform-origin: 418.48px 319.675px;" id="elqldvgsbx2a" class="animable"></polygon><polygon points="438.92 323.6 430.17 323.6 430.17 315.75 438.93 315.75 438.92 323.6" style="fill: rgb(250, 250, 250); transform-origin: 434.55px 319.675px;" id="el3t0q4ditsmm" class="animable"></polygon><polygon points="454.98 323.6 446.23 323.6 446.25 315.75 455 315.75 454.98 323.6" style="fill: rgb(240, 240, 240); transform-origin: 450.615px 319.675px;" id="eleoopcukbrle" class="animable"></polygon><polygon points="406.84 336.1 398.29 336.1 398.27 328.44 406.83 328.44 406.84 336.1" style="fill: rgb(240, 240, 240); transform-origin: 402.555px 332.27px;" id="elcbacztt5uow" class="animable"></polygon><rect x="414.34" y="328.44" width="8.55" height="7.66" style="fill: rgb(250, 250, 250); transform-origin: 418.615px 332.27px;" id="elmwnqjtsle8" class="animable"></rect><rect x="430.41" y="328.44" width="8.55" height="7.66" style="fill: rgb(240, 240, 240); transform-origin: 434.685px 332.27px;" id="el3rdegqeuxdb" class="animable"></rect><polygon points="455.01 336.1 446.46 336.1 446.48 328.44 455.04 328.44 455.01 336.1" style="fill: rgb(250, 250, 250); transform-origin: 450.75px 332.27px;" id="elgxqq0zzhcdt" class="animable"></polygon><polygon points="406.66 350.17 398.32 350.17 398.31 342.71 406.65 342.71 406.66 350.17" style="fill: rgb(250, 250, 250); transform-origin: 402.485px 346.44px;" id="elj7nbl1apnu" class="animable"></polygon><rect x="414.35" y="342.71" width="8.34" height="7.46" style="fill: rgb(250, 250, 250); transform-origin: 418.52px 346.44px;" id="elsgfphrn3fw" class="animable"></rect><rect x="430.38" y="342.71" width="8.34" height="7.46" style="fill: rgb(240, 240, 240); transform-origin: 434.55px 346.44px;" id="elgqdpcubbb6" class="animable"></rect><polygon points="454.74 350.17 446.41 350.17 446.42 342.71 454.76 342.71 454.74 350.17" style="fill: rgb(240, 240, 240); transform-origin: 450.585px 346.44px;" id="el0zox8kj5wflm" class="animable"></polygon><polygon points="406.66 362.96 398.52 362.96 398.51 355.69 406.65 355.69 406.66 362.96" style="fill: rgb(240, 240, 240); transform-origin: 402.585px 359.325px;" id="el67w657uigwf" class="animable"></polygon><polygon points="454.71 362.96 446.58 362.96 446.59 355.69 454.73 355.69 454.71 362.96" style="fill: rgb(250, 250, 250); transform-origin: 450.655px 359.325px;" id="elb8jxtre07v9" class="animable"></polygon><polygon points="438.76 355.69 414.46 355.69 414.51 357.52 415.18 357.52 415.19 371.02 417.62 371.02 417.61 357.52 435.65 357.52 435.63 371.02 438.06 371.02 438.08 357.52 438.81 357.52 438.76 355.69" style="fill: rgb(245, 245, 245); transform-origin: 426.635px 363.355px;" id="elhaa2tnwe1ga" class="animable"></polygon><polygon points="426.73 371.02 417.73 371.02 417.73 357.52 426.74 357.52 426.73 371.02" style="fill: rgb(230, 230, 230); transform-origin: 422.235px 364.27px;" id="elpj85cy6qfd" class="animable"></polygon><polygon points="435.52 371.02 426.51 371.02 426.52 357.52 435.54 357.52 435.52 371.02" style="fill: rgb(235, 235, 235); transform-origin: 431.025px 364.27px;" id="el4vcd39122vq" class="animable"></polygon><polygon points="394.21 293.58 394.39 371.02 384.06 371.02 324 371.02 313.66 371.02 312.92 293.58 394.21 293.58" style="fill: rgb(245, 245, 245); transform-origin: 353.655px 332.3px;" id="elm17no54ck9r" class="animable"></polygon><polygon points="378.76 310.79 388.84 310.79 388.81 301.75 378.73 301.75 378.76 310.79" style="fill: rgb(230, 230, 230); transform-origin: 383.785px 306.27px;" id="elt9w66x9mfn" class="animable"></polygon><polygon points="358.65 310.79 368.73 310.79 368.69 301.75 358.6 301.75 358.65 310.79" style="fill: rgb(230, 230, 230); transform-origin: 363.665px 306.27px;" id="eled4pjde5his" class="animable"></polygon><polygon points="338.54 310.79 348.62 310.79 348.56 301.75 338.48 301.75 338.54 310.79" style="fill: rgb(230, 230, 230); transform-origin: 343.55px 306.27px;" id="el70sfte4rfml" class="animable"></polygon><polygon points="318.43 310.79 328.51 310.79 328.43 301.75 318.35 301.75 318.43 310.79" style="fill: rgb(230, 230, 230); transform-origin: 323.43px 306.27px;" id="elj5yubizc7j" class="animable"></polygon><polygon points="378.38 328.44 389.24 328.44 389.21 318.71 378.34 318.71 378.38 328.44" style="fill: rgb(230, 230, 230); transform-origin: 383.79px 323.575px;" id="elrmu9vv13fz" class="animable"></polygon><polygon points="358.31 328.44 369.17 328.44 369.12 318.71 358.25 318.71 358.31 328.44" style="fill: rgb(230, 230, 230); transform-origin: 363.71px 323.575px;" id="elaqb12pr3z2g" class="animable"></polygon><polygon points="338.23 328.44 349.09 328.44 349.03 318.71 338.16 318.71 338.23 328.44" style="fill: rgb(230, 230, 230); transform-origin: 343.625px 323.575px;" id="elk4n0tyrax5" class="animable"></polygon><polygon points="318.16 328.44 329.02 328.44 328.94 318.71 318.07 318.71 318.16 328.44" style="fill: rgb(230, 230, 230); transform-origin: 323.545px 323.575px;" id="elos137231qy" class="animable"></polygon><polygon points="378.66 344.58 389.2 344.58 389.18 335.15 378.63 335.15 378.66 344.58" style="fill: rgb(230, 230, 230); transform-origin: 383.915px 339.865px;" id="el8fzuk7zy7bb" class="animable"></polygon><polygon points="358.61 344.58 369.15 344.58 369.11 335.15 358.56 335.15 358.61 344.58" style="fill: rgb(230, 230, 230); transform-origin: 363.855px 339.865px;" id="elhitg9th4ly" class="animable"></polygon><polygon points="338.56 344.58 349.1 344.58 349.04 335.15 338.49 335.15 338.56 344.58" style="fill: rgb(230, 230, 230); transform-origin: 343.795px 339.865px;" id="ell3jtf9qlrvl" class="animable"></polygon><polygon points="318.5 344.58 329.04 344.58 328.97 335.15 318.42 335.15 318.5 344.58" style="fill: rgb(230, 230, 230); transform-origin: 323.73px 339.865px;" id="el08vacj31gtar" class="animable"></polygon><polygon points="378.89 361.15 389.11 361.15 389.09 352.01 378.85 352.01 378.89 361.15" style="fill: rgb(230, 230, 230); transform-origin: 383.98px 356.58px;" id="el0e08e1krf83b" class="animable"></polygon><polygon points="318.81 361.15 329.04 361.15 328.96 352.01 318.73 352.01 318.81 361.15" style="fill: rgb(230, 230, 230); transform-origin: 323.885px 356.58px;" id="el6dqm93oil7" class="animable"></polygon><polygon points="338.08 352.01 369.71 352.01 369.72 354.77 367.7 354.77 367.78 371.02 364.85 371.02 364.77 354.77 343.07 354.77 343.18 371.02 340.26 371.02 340.14 354.77 338.11 354.77 338.08 352.01" style="fill: rgb(245, 245, 245); transform-origin: 353.9px 361.515px;" id="elbzb7csx5qti" class="animable"></polygon><polygon points="354.09 371.02 364.92 371.02 364.84 354.77 353.99 354.77 354.09 371.02" style="fill: rgb(230, 230, 230); transform-origin: 359.455px 362.895px;" id="el5nl7gdd1pq9" class="animable"></polygon><polygon points="343.11 371.02 353.94 371.02 353.85 354.77 343 354.77 343.11 371.02" style="fill: rgb(235, 235, 235); transform-origin: 348.47px 362.895px;" id="elnw2rkca3lz" class="animable"></polygon><path d="M152.1,227.29v-3.64a.44.44,0,0,0-.87,0v4a.46.46,0,0,0,.43.44,1.75,1.75,0,1,1-1.75,1.74c0-.55-.92-.55-.87,0,.22,2.17,2.75,3.6,4.47,1.86A2.62,2.62,0,0,0,152.1,227.29Z" style="fill: rgb(235, 235, 235); transform-origin: 151.643px 227.871px;" id="elvqs5wuwjy4" class="animable"></path><path d="M88,201.12V209l-8.31-8.31-.41.41H78.7v75H89.16v-75Zm-8.14,57.22,7.32,7.32H79.86Zm0-18.61,7.32,7.32H79.86Zm0-18.6,7.32,7.32H79.86Zm0-18.61,7.32,7.33H79.86ZM87.18,211l-7.32,7.33V211Zm.82.82v7.33H80.68Zm-.82,17.79-7.32,7.32v-7.32Zm.82.82v7.32H80.68Zm-.82,17.78-7.32,7.33v-7.33ZM88,249v7.33H80.68Zm-.82,17.79-7.32,7.32v-7.32ZM80.68,275,88,267.64V275ZM88,264.84l-7.32-7.32H88Zm0-18.61-7.32-7.32H88Zm0-18.6-7.32-7.32H88Z" style="fill: rgb(240, 240, 240); transform-origin: 83.93px 238.395px;" id="elsqbyeyu1g4" class="animable"></path><path d="M79.86,176.42V191H81v-5.57l6,6,.41-.41H88V176.42ZM86,177.58l-5,5v-5Zm.82,12-5-5h5Zm-5-6.15,5-5v5Z" style="fill: rgb(240, 240, 240); transform-origin: 83.93px 183.925px;" id="elqygzhatg7z" class="animable"></path><rect x="46.81" y="201.12" width="13.95" height="13.95" style="fill: rgb(230, 230, 230); transform-origin: 53.785px 208.095px;" id="elgo7rk1bvp6" class="animable"></rect><polygon points="151.85 221.25 151.07 221.25 151.07 194.43 86.1 172.88 81.81 172.88 47.02 194.47 46.61 193.82 81.58 172.11 86.23 172.11 86.29 172.13 151.85 193.87 151.85 221.25" style="fill: rgb(230, 230, 230); transform-origin: 99.23px 196.68px;" id="el7znnnynuyu7" class="animable"></polygon><path d="M143.9,201.73h.8l8.16-8.16H46.23v8.13H143.9Zm1.16-7h5l-5,5Zm-97.67,5.81v-5l5,5Zm5.82-.82-5-5h5Zm1.16-5h5l-5,5Zm5.82,5.81h-5l5-5Zm1.16,0v-5l5,5Zm5.81-.82-5-5h5Zm1.16-5h5l-5,5Zm5.82,5.81h-5l5-5Zm1.16,0v-5l5,5Zm5.82-.82-5-5h5Zm1.16-5h5l-5,5Zm5.81,5.81h-5l5-5Zm1.16,0v-5l5,5Zm5.82-.82-5-5h5Zm1.16-5h5l-5,5Zm5.81,5.81h-5l5-5Zm1.16,0v-5l5,5Zm5.82-.82-5-5h5Zm1.16-5h5l-5,5Zm5.82,5.81h-5l5-5Zm1.16,0v-5l5,5Zm5.81-.82-5-5h5Zm1.16-5h5l-5,5Zm5.82,5.81h-5l5-5Zm1.16-5.81h5l-5,5Zm5.82,5.81h-5l5-5Zm1.16,0v-5l5,5Zm.82-5.81h5v5Z" style="fill: rgb(240, 240, 240); transform-origin: 99.545px 197.65px;" id="elp55uhym97f" class="animable"></path><path d="M94.32,204.29H72.86l.79-9a4.71,4.71,0,0,1,4.7-4.31H88.57a4.73,4.73,0,0,1,4.69,4.18Z" style="fill: rgb(240, 240, 240); transform-origin: 83.59px 197.635px;" id="el3pre8gnrflf" class="animable"></path><rect x="76.32" y="194.7" width="4.12" height="4.12" style="fill: rgb(250, 250, 250); transform-origin: 78.38px 196.76px;" id="elnb4pzq138oj" class="animable"></rect><rect x="81.53" y="194.7" width="4.12" height="4.12" style="fill: rgb(250, 250, 250); transform-origin: 83.59px 196.76px;" id="elilkt6rsfwnp" class="animable"></rect><rect x="86.74" y="194.7" width="4.12" height="4.12" style="fill: rgb(250, 250, 250); transform-origin: 88.8px 196.76px;" id="elbaeur4uveq9" class="animable"></rect><path d="M86.74,174.19a2.81,2.81,0,1,1-2.81-2.81A2.81,2.81,0,0,1,86.74,174.19Z" style="fill: rgb(230, 230, 230); transform-origin: 83.93px 174.19px;" id="eldf6qli7r7eo" class="animable"></path><path d="M151.66,226.05h0a2.4,2.4,0,0,1-2.4-2.4v-2.4h4.8v2.4A2.4,2.4,0,0,1,151.66,226.05Z" style="fill: rgb(230, 230, 230); transform-origin: 151.66px 223.65px;" id="elrdtkyplszqe" class="animable"></path><polygon points="38.04 257.45 39.9 371.02 48.15 371.02 96.05 371.02 104.29 371.02 103.06 257.45 38.04 257.45" style="fill: rgb(245, 245, 245); transform-origin: 71.165px 314.235px;" id="elfkdvirvz8a" class="animable"></polygon><polygon points="42.1 260.74 42.33 274.56 42.39 278.35 42.45 282.15 50.88 282.15 50.82 278.35 50.77 274.56 50.55 260.74 42.1 260.74" style="fill: rgb(230, 230, 230); transform-origin: 46.49px 271.445px;" id="elynuzwkccwq" class="animable"></polygon><polygon points="58.26 260.74 58.47 274.56 58.52 278.35 58.58 282.15 67.01 282.15 66.96 278.35 66.91 274.56 66.72 260.74 58.26 260.74" style="fill: rgb(230, 230, 230); transform-origin: 62.635px 271.445px;" id="elyeofhvbh9wc" class="animable"></polygon><polygon points="74.42 260.74 74.61 274.56 74.66 278.35 74.71 282.15 83.14 282.15 83.1 278.35 83.05 274.56 82.88 260.74 74.42 260.74" style="fill: rgb(230, 230, 230); transform-origin: 78.78px 271.445px;" id="el8ltgx525nug" class="animable"></polygon><polygon points="90.59 260.74 90.75 274.56 90.82 280.42 90.84 282.15 99.28 282.15 99.26 280.42 99.19 274.56 99.04 260.74 90.59 260.74" style="fill: rgb(230, 230, 230); transform-origin: 94.935px 271.445px;" id="el96kkpnnopjk" class="animable"></polygon><polygon points="42.61 288.41 42.84 302.22 42.9 306.01 42.96 309.8 51.4 309.8 51.35 306.01 51.29 302.22 51.08 288.41 42.61 288.41" style="fill: rgb(230, 230, 230); transform-origin: 47.005px 299.105px;" id="el3qjqr4qpxmq" class="animable"></polygon><polygon points="58.73 288.41 58.93 302.22 59.01 307.56 59.04 309.8 67.49 309.8 67.46 307.56 67.39 302.22 67.19 288.41 58.73 288.41" style="fill: rgb(230, 230, 230); transform-origin: 63.11px 299.105px;" id="eltc2u0bpsdrh" class="animable"></polygon><polygon points="74.84 288.41 75.03 302.22 75.08 306.01 75.13 309.8 83.58 309.8 83.53 306.01 83.48 302.22 83.31 288.41 74.84 288.41" style="fill: rgb(230, 230, 230); transform-origin: 79.21px 299.105px;" id="elgma3vcs325h" class="animable"></polygon><polygon points="90.96 288.41 91.13 302.22 91.17 306.01 91.22 309.8 99.66 309.8 99.62 306.01 99.58 302.22 99.43 288.41 90.96 288.41" style="fill: rgb(230, 230, 230); transform-origin: 95.31px 299.105px;" id="elprw3jfb4dms" class="animable"></polygon><polygon points="43.09 315.75 43.31 329.5 43.38 333.28 43.44 337.05 51.87 337.05 51.81 333.28 51.75 329.5 51.55 315.75 43.09 315.75" style="fill: rgb(230, 230, 230); transform-origin: 47.48px 326.4px;" id="ele0fwhf7b5x" class="animable"></polygon><polygon points="59.17 315.75 59.37 329.5 59.42 333.28 59.48 337.05 67.91 337.05 67.86 333.28 67.81 329.5 67.62 315.75 59.17 315.75" style="fill: rgb(230, 230, 230); transform-origin: 63.54px 326.4px;" id="eleayq2rmhd8n" class="animable"></polygon><polygon points="75.24 315.75 75.42 329.5 75.47 333.28 75.52 337.05 83.96 337.05 83.91 333.28 83.86 329.5 83.69 315.75 75.24 315.75" style="fill: rgb(230, 230, 230); transform-origin: 79.6px 326.4px;" id="el7rdsmcjjb52" class="animable"></polygon><polygon points="91.32 315.75 91.48 329.5 91.54 334.72 91.57 337.05 100 337.05 99.98 334.72 99.92 329.5 99.77 315.75 91.32 315.75" style="fill: rgb(230, 230, 230); transform-origin: 95.66px 326.4px;" id="el48rxkrkhohk" class="animable"></polygon><polygon points="96 342.71 91.83 342.71 84.02 342.71 75.67 342.71 67.86 342.71 59.52 342.71 43.36 342.71 43.48 350.17 59.63 350.17 67.96 350.17 75.77 350.17 84.11 350.17 91.92 350.17 96.09 350.17 100.26 350.17 100.18 342.71 96 342.71" style="fill: rgb(230, 230, 230); transform-origin: 71.81px 346.44px;" id="elk4k7n3t2h0h" class="animable"></polygon><polygon points="84.01 355.69 59.71 355.69 59.69 357.52 60.42 357.52 60.62 371.02 63.05 371.02 62.85 357.52 80.89 357.52 81.06 371.02 83.48 371.02 83.32 357.52 83.99 357.52 84.01 355.69" style="fill: rgb(250, 250, 250); transform-origin: 71.85px 363.355px;" id="elxtndy6fuv5d" class="animable"></polygon><polygon points="72.16 371.02 63.16 371.02 62.96 357.52 71.98 357.52 72.16 371.02" style="fill: rgb(230, 230, 230); transform-origin: 67.56px 364.27px;" id="el16sb1a5ylrk" class="animable"></polygon><polygon points="80.94 371.02 71.94 371.02 71.76 357.52 80.77 357.52 80.94 371.02" style="fill: rgb(230, 230, 230); transform-origin: 76.35px 364.27px;" id="el7u6x90mg9js" class="animable"></polygon><polygon points="164.38 264 165.11 371.02 157.34 371.02 112.21 371.02 104.44 371.02 103.11 264 164.38 264" style="fill: rgb(230, 230, 230); transform-origin: 134.11px 317.51px;" id="elc3wl9a4y3bw" class="animable"></polygon><polygon points="142.74 344.58 146.05 344.58 160.9 344.58 160.92 348.01 160.94 351.44 161.04 363.86 153.35 363.86 153.25 351.09 145.75 351.09 142.79 351.09 138.47 351.09 138.41 344.58 142.74 344.58" style="fill: rgb(240, 240, 240); transform-origin: 149.725px 354.22px;" id="el1r5ce3o06ln" class="animable"></polygon><polygon points="113.44 344.58 116.4 344.58 130.5 344.58 130.57 351.09 115.98 351.09 116.13 363.86 108.44 363.86 108.3 351.44 108.24 346.48 108.21 344.58 113.44 344.58" style="fill: rgb(240, 240, 240); transform-origin: 119.39px 354.22px;" id="elm1siv3rltq" class="animable"></polygon><polygon points="124.18 356.6 145.09 356.6 145.11 358.43 145.34 358.43 145.44 371.02 143.18 371.02 143.07 358.43 126.25 358.43 126.38 371.02 124.12 371.02 123.98 358.43 124.2 358.43 124.18 356.6" style="fill: rgb(245, 245, 245); transform-origin: 134.71px 363.81px;" id="el0dzc5gmt8af7" class="animable"></polygon><polygon points="134.69 371.02 143.09 371.02 142.98 358.43 134.57 358.43 134.69 371.02" style="fill: rgb(235, 235, 235); transform-origin: 138.83px 364.725px;" id="elkzom7ofo23j" class="animable"></polygon><polygon points="126.47 371.02 134.87 371.02 134.75 358.43 126.34 358.43 126.47 371.02" style="fill: rgb(224, 224, 224); transform-origin: 130.605px 364.725px;" id="el4zmkwoavbz5" class="animable"></polygon><polygon points="137.31 268.32 160.62 268.32 160.76 288.41 137.5 288.41 137.31 268.32" style="fill: rgb(240, 240, 240); transform-origin: 149.035px 278.365px;" id="elebgb0n1k7xt" class="animable"></polygon><polygon points="107.09 268.32 130.4 268.32 130.59 288.41 107.33 288.41 107.09 268.32" style="fill: rgb(240, 240, 240); transform-origin: 118.84px 278.365px;" id="el1rtfxx9ljlvj" class="animable"></polygon><polygon points="137.96 293.58 160.27 293.58 160.42 312.78 138.13 312.78 137.96 293.58" style="fill: rgb(240, 240, 240); transform-origin: 149.19px 303.18px;" id="elbh9sc31bkbe" class="animable"></polygon><polygon points="107.79 293.58 130.1 293.58 130.3 312.78 108.01 312.78 107.79 293.58" style="fill: rgb(240, 240, 240); transform-origin: 119.045px 303.18px;" id="el3qct1pq15my" class="animable"></polygon><polygon points="138.19 319.69 160.63 319.69 160.77 338.94 138.36 338.94 138.19 319.69" style="fill: rgb(240, 240, 240); transform-origin: 149.48px 329.315px;" id="ela90r051f3yk" class="animable"></polygon><polygon points="108.11 319.69 130.55 319.69 130.74 338.94 108.33 338.94 108.11 319.69" style="fill: rgb(240, 240, 240); transform-origin: 119.425px 329.315px;" id="elf4j8pth9xbb" class="animable"></polygon></g><g id="freepik--Shadow--inject-186" class="animable" style="transform-origin: 250px 415.69px;"><ellipse id="freepik--path--inject-186" cx="250" cy="415.69" rx="193.89" ry="11.32" style="fill: rgb(245, 245, 245); transform-origin: 250px 415.69px;" class="animable"></ellipse></g><g id="freepik--Company--inject-186" class="animable" style="transform-origin: 250px 218.486px;"><polygon points="160.83 84.62 164.56 89.44 335.42 89.44 339.18 84.62 160.83 84.62" style="fill: rgb(44, 85, 199); transform-origin: 250.005px 87.03px;" id="elvcb12pxhx" class="animable"></polygon><g id="elivbp88jddrr"><g style="opacity: 0.4; transform-origin: 250.005px 87.03px;" class="animable"><polygon points="160.83 84.62 164.56 89.44 335.42 89.44 339.18 84.62 160.83 84.62" id="elswe8hpwwh3" class="animable" style="transform-origin: 250.005px 87.03px;"></polygon></g></g><rect x="164.21" y="78.41" width="171.25" height="303.58" style="fill: rgb(44, 85, 199); transform-origin: 249.835px 230.2px;" id="el7zzu9ertzqo" class="animable"></rect><g id="el07tf7uo2ijnm"><g style="opacity: 0.4; transform-origin: 249.835px 230.2px;" class="animable"><rect x="164.21" y="78.41" width="171.25" height="303.58" style="fill: rgb(255, 255, 255); transform-origin: 249.835px 230.2px;" id="el7i80sv4tj7x" class="animable"></rect></g></g><g id="elvuuajdja0pn"><g style="opacity: 0.8; transform-origin: 249.66px 85.865px;" class="animable"><path d="M171.15,85.88a3.11,3.11,0,0,1-3.06,3.57,4,4,0,0,1-3.82-3.57,3.12,3.12,0,0,1,3.07-3.6A4,4,0,0,1,171.15,85.88Z" style="fill: rgb(240, 240, 240); transform-origin: 167.709px 85.865px;" id="elwd5i6c3zcr" class="animable"></path><path d="M177.46,85.88a3.14,3.14,0,0,1-3.1,3.57,4,4,0,0,1-3.78-3.57,3.14,3.14,0,0,1,3.09-3.6A4,4,0,0,1,177.46,85.88Z" style="fill: rgb(240, 240, 240); transform-origin: 174.018px 85.865px;" id="ellb3ezz6sxs" class="animable"></path><path d="M183.76,85.88a3.16,3.16,0,0,1-3.12,3.57,3.92,3.92,0,0,1-3.76-3.57,3.17,3.17,0,0,1,3.12-3.6A3.92,3.92,0,0,1,183.76,85.88Z" style="fill: rgb(240, 240, 240); transform-origin: 180.319px 85.865px;" id="elvl6ys4l6mfe" class="animable"></path><path d="M190.06,85.88a3.2,3.2,0,0,1-3.15,3.57,3.89,3.89,0,0,1-3.73-3.57,3.21,3.21,0,0,1,3.16-3.6A3.88,3.88,0,0,1,190.06,85.88Z" style="fill: rgb(240, 240, 240); transform-origin: 186.619px 85.865px;" id="elipo846fjrh" class="animable"></path><path d="M196.37,85.88a3.23,3.23,0,0,1-3.18,3.57,3.85,3.85,0,0,1-3.7-3.57,3.23,3.23,0,0,1,3.18-3.6A3.84,3.84,0,0,1,196.37,85.88Z" style="fill: rgb(240, 240, 240); transform-origin: 192.928px 85.865px;" id="elcq7zn8fqt2l" class="animable"></path><path d="M202.67,85.88a3.26,3.26,0,0,1-3.21,3.57,3.81,3.81,0,0,1-3.67-3.57,3.26,3.26,0,0,1,3.21-3.6A3.8,3.8,0,0,1,202.67,85.88Z" style="fill: rgb(240, 240, 240); transform-origin: 199.229px 85.865px;" id="elcrlsblh6tbk" class="animable"></path><path d="M209,85.88a3.29,3.29,0,0,1-3.24,3.57,3.77,3.77,0,0,1-3.64-3.57,3.28,3.28,0,0,1,3.23-3.6A3.78,3.78,0,0,1,209,85.88Z" style="fill: rgb(240, 240, 240); transform-origin: 205.558px 85.865px;" id="elljwovwuu8w" class="animable"></path><path d="M215.28,85.88A3.32,3.32,0,0,1,212,89.45a3.73,3.73,0,0,1-3.61-3.57,3.32,3.32,0,0,1,3.26-3.6A3.74,3.74,0,0,1,215.28,85.88Z" style="fill: rgb(240, 240, 240); transform-origin: 211.834px 85.865px;" id="el1phw1y35o5a" class="animable"></path><path d="M221.58,85.88a3.35,3.35,0,0,1-3.29,3.57,3.7,3.7,0,0,1-3.59-3.57,3.35,3.35,0,0,1,3.3-3.6A3.69,3.69,0,0,1,221.58,85.88Z" style="fill: rgb(240, 240, 240); transform-origin: 218.139px 85.865px;" id="el1fb9xhtagoq" class="animable"></path><path d="M227.89,85.88a3.39,3.39,0,0,1-3.33,3.57A3.65,3.65,0,0,1,221,85.88a3.38,3.38,0,0,1,3.32-3.6A3.66,3.66,0,0,1,227.89,85.88Z" style="fill: rgb(240, 240, 240); transform-origin: 224.444px 85.865px;" id="elodm3rmap56" class="animable"></path><path d="M234.19,85.88a3.42,3.42,0,0,1-3.35,3.57,3.63,3.63,0,0,1-3.53-3.57,3.41,3.41,0,0,1,3.35-3.6A3.62,3.62,0,0,1,234.19,85.88Z" style="fill: rgb(240, 240, 240); transform-origin: 230.749px 85.865px;" id="eltquuzs1076p" class="animable"></path><path d="M240.49,85.88a3.45,3.45,0,0,1-3.38,3.57,3.6,3.6,0,0,1-3.5-3.57,3.45,3.45,0,0,1,3.38-3.6A3.58,3.58,0,0,1,240.49,85.88Z" style="fill: rgb(240, 240, 240); transform-origin: 237.049px 85.865px;" id="el9mhqq2ngqwb" class="animable"></path><path d="M246.8,85.88a3.48,3.48,0,0,1-3.41,3.57,3.55,3.55,0,0,1-3.47-3.57,3.48,3.48,0,0,1,3.41-3.6A3.56,3.56,0,0,1,246.8,85.88Z" style="fill: rgb(240, 240, 240); transform-origin: 243.36px 85.865px;" id="elm6pki721bgr" class="animable"></path><path d="M253.1,85.88a3.44,3.44,0,1,1-3.44-3.6A3.51,3.51,0,0,1,253.1,85.88Z" style="fill: rgb(240, 240, 240); transform-origin: 249.662px 85.72px;" id="ela381998hecq" class="animable"></path><path d="M259.4,85.88a3.54,3.54,0,0,1-3.46,3.57,3.48,3.48,0,0,1-3.41-3.57,3.54,3.54,0,0,1,3.46-3.6A3.48,3.48,0,0,1,259.4,85.88Z" style="fill: rgb(240, 240, 240); transform-origin: 255.965px 85.865px;" id="eluhrrg18aogl" class="animable"></path><path d="M265.71,85.88a3.58,3.58,0,0,1-3.5,3.57,3.45,3.45,0,0,1-3.38-3.57,3.58,3.58,0,0,1,3.49-3.6A3.46,3.46,0,0,1,265.71,85.88Z" style="fill: rgb(240, 240, 240); transform-origin: 262.27px 85.865px;" id="elouckbz51zij" class="animable"></path><path d="M272,85.88a3.62,3.62,0,0,1-3.52,3.57,3.43,3.43,0,0,1-3.36-3.57,3.62,3.62,0,0,1,3.53-3.6A3.42,3.42,0,0,1,272,85.88Z" style="fill: rgb(240, 240, 240); transform-origin: 268.561px 85.865px;" id="elo9cacau41q" class="animable"></path><path d="M278.32,85.88a3.66,3.66,0,0,1-3.56,3.57,3.38,3.38,0,0,1-3.32-3.57,3.65,3.65,0,0,1,3.55-3.6A3.39,3.39,0,0,1,278.32,85.88Z" style="fill: rgb(240, 240, 240); transform-origin: 274.881px 85.865px;" id="elx7hya5clm2" class="animable"></path><path d="M284.62,85.88A3.7,3.7,0,0,1,281,89.45a3.36,3.36,0,0,1-3.3-3.57,3.69,3.69,0,0,1,3.58-3.6A3.35,3.35,0,0,1,284.62,85.88Z" style="fill: rgb(240, 240, 240); transform-origin: 281.161px 85.865px;" id="el5r93ffgcvpc" class="animable"></path><path d="M290.92,85.88a3.72,3.72,0,0,1-3.6,3.57A3.33,3.33,0,0,1,284,85.88a3.73,3.73,0,0,1,3.61-3.6A3.32,3.32,0,0,1,290.92,85.88Z" style="fill: rgb(240, 240, 240); transform-origin: 287.462px 85.865px;" id="el9bsvygbjvws" class="animable"></path><path d="M297.23,85.88a3.77,3.77,0,0,1-3.64,3.57,3.29,3.29,0,0,1-3.24-3.57,3.76,3.76,0,0,1,3.64-3.6A3.3,3.3,0,0,1,297.23,85.88Z" style="fill: rgb(240, 240, 240); transform-origin: 293.791px 85.865px;" id="elqxqjuxtyf6n" class="animable"></path><path d="M303.53,85.88a3.8,3.8,0,0,1-3.66,3.57,3.27,3.27,0,0,1-3.22-3.57,3.8,3.8,0,0,1,3.67-3.6A3.26,3.26,0,0,1,303.53,85.88Z" style="fill: rgb(240, 240, 240); transform-origin: 300.092px 85.865px;" id="elimu42pwekdl" class="animable"></path><path d="M309.83,85.88a3.83,3.83,0,0,1-3.69,3.57A3.24,3.24,0,0,1,303,85.88a3.84,3.84,0,0,1,3.7-3.6A3.23,3.23,0,0,1,309.83,85.88Z" style="fill: rgb(240, 240, 240); transform-origin: 306.417px 85.865px;" id="elynjycgdhih" class="animable"></path><path d="M316.14,85.88a3.88,3.88,0,0,1-3.72,3.57,3.2,3.2,0,0,1-3.16-3.57,3.87,3.87,0,0,1,3.72-3.6A3.21,3.21,0,0,1,316.14,85.88Z" style="fill: rgb(240, 240, 240); transform-origin: 312.701px 85.865px;" id="eltkmgpss93ra" class="animable"></path><path d="M322.44,85.88a3.92,3.92,0,0,1-3.75,3.57,3.18,3.18,0,0,1-3.13-3.57,3.92,3.92,0,0,1,3.75-3.6A3.18,3.18,0,0,1,322.44,85.88Z" style="fill: rgb(240, 240, 240); transform-origin: 319.002px 85.865px;" id="el6vwysv3vpk6" class="animable"></path><path d="M328.75,85.88A4,4,0,0,1,325,89.45a3.14,3.14,0,0,1-3.1-3.57,4,4,0,0,1,3.78-3.6A3.15,3.15,0,0,1,328.75,85.88Z" style="fill: rgb(240, 240, 240); transform-origin: 325.326px 85.865px;" id="elsza9u1t8dg" class="animable"></path><path d="M335.05,85.88a4,4,0,0,1-3.81,3.57,3.12,3.12,0,0,1-3.07-3.57,4,4,0,0,1,3.81-3.6A3.12,3.12,0,0,1,335.05,85.88Z" style="fill: rgb(240, 240, 240); transform-origin: 331.612px 85.865px;" id="ell03t3so4qx" class="animable"></path></g></g><polygon points="160.82 79.74 339.19 79.74 339.18 84.62 160.83 84.62 160.82 79.74" style="fill: rgb(44, 85, 199); transform-origin: 250.005px 82.18px;" id="elh3qhnyyu5at" class="animable"></polygon><polygon points="160.81 74.86 164.53 79.74 335.44 79.74 339.2 74.86 160.81 74.86" style="fill: rgb(44, 85, 199); transform-origin: 250.005px 77.3px;" id="elgds90vebofm" class="animable"></polygon><g id="eldtucec1ndx6"><g style="opacity: 0.4; transform-origin: 250.005px 77.3px;" class="animable"><polygon points="160.81 74.86 164.53 79.74 335.44 79.74 339.2 74.86 160.81 74.86" id="elgw9s0ivqri5" class="animable" style="transform-origin: 250.005px 77.3px;"></polygon></g></g><polygon points="160.79 69.96 339.21 69.96 339.2 74.86 160.81 74.86 160.79 69.96" style="fill: rgb(44, 85, 199); transform-origin: 250px 72.41px;" id="elsmuvliw8tu" class="animable"></polygon><g id="eljaiuumy337s"><g style="opacity: 0.8; transform-origin: 249.985px 77.3px;" class="animable"><polygon points="164.52 74.86 335.45 74.86 335.44 79.74 164.53 79.74 164.52 74.86" style="fill: rgb(255, 255, 255); transform-origin: 249.985px 77.3px;" id="elh8hftn7iwoe" class="animable"></polygon></g></g><g id="elyef28iw3dzn"><g style="opacity: 0.7; transform-origin: 249.88px 176.885px;" class="animable"><rect x="164.26" y="175.81" width="171.24" height="2.15" style="fill: rgb(255, 255, 255); transform-origin: 249.88px 176.885px;" id="elardedv1z29q" class="animable"></rect></g></g><g id="el6j99edzb3er"><g style="opacity: 0.8; transform-origin: 250.05px 283.59px;" class="animable"><rect x="164.61" y="282.52" width="170.88" height="2.14" style="fill: rgb(255, 255, 255); transform-origin: 250.05px 283.59px;" id="el9wsxs1dlrgb" class="animable"></rect></g></g><rect x="199.75" y="98.79" width="21.17" height="22.87" style="fill: rgb(44, 85, 199); transform-origin: 210.335px 110.225px;" id="elri33dci12rf" class="animable"></rect><rect x="240.41" y="98.79" width="21.17" height="22.87" style="fill: rgb(44, 85, 199); transform-origin: 250.995px 110.225px;" id="elzwa3giol8q" class="animable"></rect><rect x="281.07" y="98.79" width="21.17" height="22.87" style="fill: rgb(44, 85, 199); transform-origin: 291.655px 110.225px;" id="elfe8blkmech" class="animable"></rect><rect x="199.75" y="133.03" width="21.17" height="22.87" style="fill: rgb(44, 85, 199); transform-origin: 210.335px 144.465px;" id="eluj7vtgi1f8n" class="animable"></rect><rect x="240.41" y="133.03" width="21.17" height="22.87" style="fill: rgb(44, 85, 199); transform-origin: 250.995px 144.465px;" id="el2ywlsjuxt4h" class="animable"></rect><rect x="281.07" y="133.03" width="21.17" height="22.87" style="fill: rgb(44, 85, 199); transform-origin: 291.655px 144.465px;" id="elhyu3ft495gt" class="animable"></rect><rect x="199.75" y="298.99" width="21.17" height="22.87" style="fill: rgb(44, 85, 199); transform-origin: 210.335px 310.425px;" id="elsh8hxwrrozq" class="animable"></rect><rect x="240.41" y="298.99" width="21.17" height="22.87" style="fill: rgb(44, 85, 199); transform-origin: 250.995px 310.425px;" id="elk1zrsztyt6t" class="animable"></rect><rect x="281.07" y="298.99" width="21.17" height="22.87" style="fill: rgb(44, 85, 199); transform-origin: 291.655px 310.425px;" id="elwmyelmazlm" class="animable"></rect><rect x="177.07" y="347.14" width="21.17" height="22.87" style="fill: rgb(44, 85, 199); transform-origin: 187.655px 358.575px;" id="elngru6gg6y19" class="animable"></rect><rect x="301.45" y="347.14" width="21.17" height="22.87" style="fill: rgb(44, 85, 199); transform-origin: 312.035px 358.575px;" id="eldj4ha3a109" class="animable"></rect><rect x="199.75" y="195.98" width="21.17" height="22.87" style="fill: rgb(44, 85, 199); transform-origin: 210.335px 207.415px;" id="elkielezjnfbt" class="animable"></rect><rect x="240.41" y="195.98" width="21.17" height="22.87" style="fill: rgb(44, 85, 199); transform-origin: 250.995px 207.415px;" id="el20peh4gkx82" class="animable"></rect><rect x="281.07" y="195.98" width="21.17" height="22.87" style="fill: rgb(44, 85, 199); transform-origin: 291.655px 207.415px;" id="el1zu3bgnnaea" class="animable"></rect><rect x="199.75" y="230.22" width="21.17" height="22.87" style="fill: rgb(44, 85, 199); transform-origin: 210.335px 241.655px;" id="el03yfl0l0keg3" class="animable"></rect><rect x="240.41" y="230.22" width="21.17" height="22.87" style="fill: rgb(44, 85, 199); transform-origin: 250.995px 241.655px;" id="electkxnoqpd8" class="animable"></rect><rect x="281.07" y="230.22" width="21.17" height="22.87" style="fill: rgb(44, 85, 199); transform-origin: 291.655px 241.655px;" id="el4s9ino6lpaj" class="animable"></rect><g id="elkacz01biid"><g style="opacity: 0.8; isolation: isolate; transform-origin: 236.23px 361.195px;" class="animable"><polygon points="225.35 349.82 247.26 349.82 247.17 372.57 225.2 372.57 225.35 349.82" style="fill: rgb(255, 255, 255); transform-origin: 236.23px 361.195px;" id="el82650pnknlq" class="animable"></polygon></g></g><g id="elrn9kw729v9"><g style="opacity: 0.8; isolation: isolate; transform-origin: 262.775px 361.195px;" class="animable"><polygon points="251.49 349.82 274.3 349.82 273.22 372.57 251.25 372.57 251.49 349.82" style="fill: rgb(255, 255, 255); transform-origin: 262.775px 361.195px;" id="ellwr70xk7dbo" class="animable"></polygon></g></g><polygon points="277.79 377.15 219.98 377.15 219.75 372.57 278.01 372.57 277.79 377.15" style="fill: rgb(44, 85, 199); transform-origin: 248.88px 374.86px;" id="elxdemvadwrg" class="animable"></polygon><g id="elbsz5fgezqse"><g style="opacity: 0.1; transform-origin: 248.88px 374.86px;" class="animable"><polygon points="277.79 377.15 219.98 377.15 219.75 372.57 278.01 372.57 277.79 377.15" style="fill: rgb(255, 255, 255); transform-origin: 248.88px 374.86px;" id="elfsgpp9tk3h" class="animable"></polygon></g></g><polygon points="280.12 381.99 217.94 381.99 217.69 377.48 280.35 377.48 280.12 381.99" style="fill: rgb(44, 85, 199); transform-origin: 249.02px 379.735px;" id="elr7pygnsw2cd" class="animable"></polygon><g id="elvw6dl61aqk"><g style="opacity: 0.4; transform-origin: 248.935px 339.185px;" class="animable"><polygon points="282.18 341.76 215.72 341.76 215.43 336.61 282.44 336.61 282.18 341.76" style="fill: rgb(255, 255, 255); transform-origin: 248.935px 339.185px;" id="elut5av6gqf5a" class="animable"></polygon></g></g><polygon points="215.72 341.76 225.35 349.82 274.3 349.82 282.18 341.76 215.72 341.76" style="fill: rgb(38, 50, 56); transform-origin: 248.95px 345.79px;" id="el4j2ekv7kygx" class="animable"></polygon><path d="M220.22,345.53l3.4,27h2.7l-1.09-27h0a5.47,5.47,0,0,0-5,0Z" style="fill: rgb(44, 85, 199); transform-origin: 223.27px 358.728px;" id="elx6ih9maesi" class="animable"></path><path d="M278.62,345.53l-3.33,27h-2.7l1-27h0a4.56,4.56,0,0,1,5,0Z" style="fill: rgb(44, 85, 199); transform-origin: 275.605px 358.657px;" id="ela1jvefcl5ln" class="animable"></path><path d="M193.44,62.54c0-4.42,3.39-7.55,8-7.55a7.67,7.67,0,0,1,6.25,2.74l-2.61,2.36a4.34,4.34,0,0,0-3.43-1.7,4.15,4.15,0,0,0,0,8.3,4.31,4.31,0,0,0,3.43-1.7l2.61,2.37a7.7,7.7,0,0,1-6.25,2.74C196.83,70.1,193.44,67,193.44,62.54Z" style="fill: rgb(38, 50, 56); transform-origin: 200.565px 62.5447px;" id="elbv687e8kp2t" class="animable"></path><path d="M208.44,62.54c0-4.35,3.43-7.55,8.08-7.55s8.07,3.2,8.07,7.55-3.42,7.56-8.07,7.56S208.44,66.9,208.44,62.54Zm12,0a3.93,3.93,0,1,0-3.92,4.15A3.89,3.89,0,0,0,220.44,62.54Z" style="fill: rgb(38, 50, 56); transform-origin: 216.515px 62.545px;" id="elchnxqwfqopl" class="animable"></path><path d="M239.86,69.81l0-7.7-3.74,6.27h-1.82l-3.72-6.06v7.49h-3.8V55.28h3.39l5.1,8.38,5-8.38h3.38l0,14.53Z" style="fill: rgb(38, 50, 56); transform-origin: 235.215px 62.545px;" id="elufzbe53kag" class="animable"></path><path d="M259.63,60.66c0,3.29-2.49,5.35-6.45,5.35h-2.54v3.8h-4.1V55.28h6.64C257.14,55.28,259.63,57.33,259.63,60.66Zm-4.15,0c0-1.35-.85-2.14-2.55-2.14h-2.29v4.25h2.29C254.63,62.77,255.48,62,255.48,60.66Z" style="fill: rgb(38, 50, 56); transform-origin: 253.085px 62.545px;" id="el8tfhjmo0okc" class="animable"></path><path d="M270.63,67h-6.15l-1.14,2.83h-4.19l6.41-14.53h4.05L276,69.81h-4.27Zm-1.21-3-1.87-4.64L265.69,64Z" style="fill: rgb(38, 50, 56); transform-origin: 267.575px 62.565px;" id="elp87u8g2uct" class="animable"></path><path d="M291,55.28V69.81h-3.38l-6.41-7.74v7.74h-4V55.28h3.38L287,63V55.28Z" style="fill: rgb(38, 50, 56); transform-origin: 284.105px 62.545px;" id="el2gpn71bwm" class="animable"></path><path d="M301.7,64.6v5.21h-4.11V64.54l-5.54-9.26h4.34l3.45,5.77,3.44-5.77h4Z" style="fill: rgb(38, 50, 56); transform-origin: 299.665px 62.545px;" id="elhzoyivmz2dg" class="animable"></path><polygon points="164.52 74.86 335.45 74.86 335.44 79.74 164.53 79.74 164.52 74.86" style="fill: rgb(44, 85, 199); transform-origin: 249.985px 77.3px;" id="el5r72pxess2u" class="animable"></polygon></g><g id="freepik--character-2--inject-186" class="animable" style="transform-origin: 384.035px 299.785px;"><path d="M362.18,231.13c-5.37,7.24-7.45,10.57-9.53,12.62-2.27,2.24-25.45.53-28.25-.64-2.14-.9-.66-3.68.35-3.54,3.82.53,18.16-2,22.41-3.84.74-.33,8-9.16,8-9.16Z" style="fill: rgb(255, 181, 115); transform-origin: 342.742px 235.707px;" id="elny4oebfo79" class="animable"></path><path d="M353.36,226.34c4.54-8.33,13.49-14.44,16.2-14.79,3.9-.51,5.21.27,4.07,3.4-1.94,5.33-5.51,10.93-10.54,17.71Z" style="fill: rgb(44, 85, 199); transform-origin: 363.693px 222.033px;" id="ellfwebufqy9f" class="animable"></path><g id="el9mjxuyngwfs"><g style="opacity: 0.1; transform-origin: 363.693px 222.033px;" class="animable"><path d="M353.36,226.34c4.54-8.33,13.49-14.44,16.2-14.79,3.9-.51,5.21.27,4.07,3.4-1.94,5.33-5.51,10.93-10.54,17.71Z" id="elgzwdk50oh3l" class="animable" style="transform-origin: 363.693px 222.033px;"></path></g></g><path d="M369.56,211.55a59.73,59.73,0,0,1,6.7-2,88.2,88.2,0,0,1,12.61-2.08,71.48,71.48,0,0,1,7.44-.41,3.19,3.19,0,0,1,.75.08,3.73,3.73,0,0,1,2.75,4.38c-4.17,22.05-4.37,31.83-3.77,43.19l-25.38.9a1.35,1.35,0,0,1-1.34-1.14c-1.13-5.72-4.64-18.43-4.64-18.43-3.17-3.05-3.7-6.81-4-9-.18-1.19,2.48-2.48,5.37-8.78C366,218.26,368.26,212,369.56,211.55Z" style="fill: rgb(44, 85, 199); transform-origin: 380.28px 231.335px;" id="elqz2djcjx0l" class="animable"></path><path d="M385.6,255.06l-9.25.34c-1.38-11-1.12-20.71-.64-31.65A315.38,315.38,0,0,0,385.6,255.06Z" style="fill: rgb(38, 50, 56); transform-origin: 380.463px 239.575px;" id="el5z9sgdazup" class="animable"></path><path d="M388.28,339.66c-.23-.51-.46-1-.68-1.58C377.62,314.23,370,266,370,266L387.79,257s5.06,42.38,12,69.95c1.06,4.2,2.15,8,3.28,11.33l-12.15,5.58Z" style="fill: rgb(255, 181, 115); transform-origin: 386.535px 300.43px;" id="elvo41mip1l1g" class="animable"></path><g id="elvrwgi8flw38"><g style="opacity: 0.8; isolation: isolate; transform-origin: 386.535px 300.43px;" class="animable"><path d="M388.28,339.66c-.23-.51-.46-1-.68-1.58C377.62,314.23,370,266,370,266L387.79,257s5.06,42.38,12,69.95c1.06,4.2,2.15,8,3.28,11.33l-12.15,5.58Z" style="fill: rgb(38, 50, 56); transform-origin: 386.535px 300.43px;" id="elmtpi8p7yn09" class="animable"></path></g></g><path d="M371.31,259.78s-8.14,57-6.22,80.31c2,24.57,9.3,66.64,9.3,66.64l6-.41a286.67,286.67,0,0,0-1.49-65.88c13.75-35.39,15.29-79.76,15.29-79.76Z" style="fill: rgb(255, 181, 115); transform-origin: 379.493px 333.255px;" id="elzsognasjsq" class="animable"></path><g id="elmkugk2cd4vd"><path d="M371.31,259.78s-8.14,57-6.22,80.31c2,24.57,9.3,66.64,9.3,66.64l6-.41a286.67,286.67,0,0,0-1.49-65.88c13.75-35.39,15.29-79.76,15.29-79.76Z" style="fill: rgb(38, 50, 56); opacity: 0.8; isolation: isolate; transform-origin: 379.493px 333.255px;" class="animable"></path></g><path d="M381.17,408.2a5.89,5.89,0,0,1,.67,2.58c.16,3.29.39,12.06.39,12.06l-.72.05s-.44-4.3-.94-6.45-.83-.3-1.93,2.05-4.19,4.76-8.89,5.2c-5.51.51-7.76.41-6.25-1.14s5.12-2.71,5.12-2.71,4.8-8.21,4.52-13.75c-.3-5.91,6.53-.36,7.85-1.19C381.46,405,380.9,407.72,381.17,408.2Z" style="fill: rgb(38, 50, 56); transform-origin: 372.636px 413.648px;" id="elaq1i3orvc7r" class="animable"></path><path d="M400.19,329c-3.49.75-6.59,3.32-15.76,4.24l-.55,0c-.39,0-.79.07-1.21.09-2.46.13-16.55-.53-19.16-2.06,2.27-23.45,6.74-73.28,6.74-73.28L381,256.71l13.87-.42s15.3,15.8,11.78,30.14C401.4,307.88,404,311.21,400.19,329Z" style="fill: rgb(38, 50, 56); transform-origin: 385.343px 294.818px;" id="el4271op79yot" class="animable"></path><path d="M395.91,243.44a3.5,3.5,0,0,1-1-2.84s0-1.58-.05-4c-.08-7-.14-21,.59-22.86,1.6-4,4.34-6.19,5.77-3.85,1.68,2.74,1.8,23.53,1.8,23.53C402.59,247.18,397.55,245.36,395.91,243.44Z" style="fill: rgb(255, 181, 115); transform-origin: 398.917px 226.843px;" id="elw0bt4pbb2s" class="animable"></path><path d="M392.58,206.65l-.84,1.51C388.5,214,381,221.61,378.07,222.35a10.85,10.85,0,0,0-3.07-4.08,6.4,6.4,0,0,0-3.28,3.85c-2.51-4.08-2.29-9.24-1.66-11.79h0c1.48-.45,3.06-.91,4.56-1.28a91,91,0,0,1,12.61-2A42.58,42.58,0,0,1,392.58,206.65Z" style="fill: rgb(44, 85, 199); transform-origin: 381.113px 214.5px;" id="elwn1u0ulj3hp" class="animable"></path><g id="elhc7zqbkt3v"><path d="M392.58,206.65l-.84,1.51C388.5,214,381,221.61,378.07,222.35a37,37,0,0,1-1.39-4.34c-1.57.78-2.73,3-3.25,4.68-2.52-4.08-4-9.81-3.37-12.36h0c1.48-.45,3.06-.91,4.56-1.28a91,91,0,0,1,12.61-2A42.58,42.58,0,0,1,392.58,206.65Z" style="fill: rgb(255, 255, 255); opacity: 0.8; transform-origin: 381.248px 214.67px;" class="animable"></path></g><path d="M373.28,235.26l-3.48-4.72-3.11,6.16s3.18,1.78,5.82,1.18Z" style="fill: rgb(255, 181, 115); transform-origin: 369.985px 234.272px;" id="elb2g1e4ndif" class="animable"></path><polygon points="364.29 229.09 362.81 234.07 366.69 236.67 369.8 230.54 364.29 229.09" style="fill: rgb(255, 181, 115); transform-origin: 366.305px 232.88px;" id="eltpx1b4t8gfg" class="animable"></polygon><path d="M396,257.61l-12.85.35-1.08,0-2.78.08-1.06,0-7.55.2c-.23,0-.44-.12-.45-.27l-.3-2.42c0-.16.19-.31.45-.32l7.46-.3.89,0,3.69-.14.87,0,12.38-.49a.5.5,0,0,1,.45.19l.3,2.75C396.54,257.4,396.32,257.6,396,257.61Z" style="fill: rgb(44, 85, 199); transform-origin: 383.192px 256.268px;" id="el7m5ua9akxv2" class="animable"></path><g id="el6hy2xb8zmdy"><path d="M396,257.61l-12.85.35-1.08,0-2.78.08-1.06,0-7.55.2c-.23,0-.44-.12-.45-.27l-.3-2.42c0-.16.19-.31.45-.32l7.46-.3.89,0,3.69-.14.87,0,12.38-.49a.5.5,0,0,1,.45.19l.3,2.75C396.54,257.4,396.32,257.6,396,257.61Z" style="fill: rgb(255, 255, 255); opacity: 0.2; transform-origin: 383.192px 256.268px;" class="animable"></path></g><path d="M374.26,258.51h.82a.23.23,0,0,0,.28-.21l-.46-3.43c0-.1-.16-.19-.33-.19l-.82,0c-.17,0-.29.1-.28.2l.46,3.44A.32.32,0,0,0,374.26,258.51Z" style="fill: rgb(38, 50, 56); transform-origin: 374.415px 256.598px;" id="el03coip4xgv92" class="animable"></path><path d="M388.58,258.3l.78,0a.22.22,0,0,0,.27-.18l-.47-3.45c0-.09-.16-.18-.31-.17l-.78,0c-.16,0-.27.08-.26.19l.46,3.42C388.28,258.23,388.42,258.3,388.58,258.3Z" style="fill: rgb(38, 50, 56); transform-origin: 388.72px 256.403px;" id="elqg2p6tnpe5" class="animable"></path><path d="M392.84,273.11l-2-.71,8.9-26.63c1.42-4.23.88-8.27-4.37-10.12-4.91-1.73-8.77.74-10.2,5l-9,26.55-2-.71,9-26.53c1.66-4.91,4.86-8.24,12.58-5.51s7.57,7.13,5.92,12.06Z" style="fill: rgb(44, 85, 199); transform-origin: 388.377px 253.289px;" id="elkte21c55dmb" class="animable"></path><path d="M397.87,289.54l-39-14,8.84-25.82a4.74,4.74,0,0,1,6.06-3l28.42,10.1a6.39,6.39,0,0,1,3.85,8Z" style="fill: rgb(44, 85, 199); transform-origin: 382.617px 267.999px;" id="el14b15k7l3gzp" class="animable"></path><g id="elwwuftfoud69"><path d="M393.55,288l-30.39-10.92a4.69,4.69,0,0,1-2.77-5.95l7.33-21.41a4.74,4.74,0,0,1,6.06-3l28.42,10.1a6.39,6.39,0,0,1,3.85,8l-6.71,20.27A4.51,4.51,0,0,1,393.55,288Z" style="fill: rgb(255, 255, 255); opacity: 0.4; transform-origin: 383.248px 267.355px;" class="animable"></path></g><g id="elpow2t6uz93p"><g style="opacity: 0.3; transform-origin: 388.427px 253.974px;" class="animable"><path d="M392.84,273.11l-1.57,1.37-.41-2.08,8.9-26.63c1.42-4.23.88-8.27-4.37-10.12-4.91-1.73-8.77.74-10.2,5l-9,26.55-1.62,1.35-.35-2.06,9-26.53c1.66-4.91,4.86-8.24,12.58-5.51s7.57,7.13,5.92,12.06Z" style="fill: rgb(255, 255, 255); transform-origin: 388.427px 253.974px;" id="eltudajjbc9s" class="animable"></path></g></g><polygon points="380.24 257.08 376.99 255.92 377.4 254.69 380.65 255.85 380.24 257.08" style="fill: rgb(44, 85, 199); transform-origin: 378.82px 255.885px;" id="elmq970pgfzlb" class="animable"></polygon><polygon points="377.54 265.06 374.28 263.9 374.7 262.67 377.95 263.83 377.54 265.06" style="fill: rgb(44, 85, 199); transform-origin: 376.115px 263.865px;" id="elbvuwmzw42h4" class="animable"></polygon><polygon points="396.95 263.04 393.69 261.88 394.1 260.64 397.36 261.8 396.95 263.04" style="fill: rgb(44, 85, 199); transform-origin: 395.525px 261.84px;" id="eleigilunaqce" class="animable"></polygon><polygon points="394.28 271.05 391.01 269.88 391.42 268.64 394.69 269.81 394.28 271.05" style="fill: rgb(44, 85, 199); transform-origin: 392.85px 269.845px;" id="elwhawyxkgy5c" class="animable"></polygon><polygon points="390.5 261.53 383.52 259.04 384.4 256.4 391.38 258.89 390.5 261.53" style="fill: rgb(255, 255, 255); transform-origin: 387.45px 258.965px;" id="el1fjyo1qs2qk" class="animable"></polygon><path d="M398.92,244.67c-3.13,1.8-15.79-.23-26.5-6.67-.5-.31-1-.27-1.19-.39-.67-.49,1-1.62,2-2.14.55-.28,24.18,2.71,25.81,2.93C400.89,243.22,399.22,243.16,398.92,244.67Z" style="fill: rgb(255, 181, 115); transform-origin: 385.487px 240.374px;" id="el6fvu3p7ntrv" class="animable"></path><path d="M388.83,341.59c1.72,4.91,7.49,7.07,11.53,4a5.85,5.85,0,0,0,.47-.4c17.5-16.2,39.76-39.81,39.76-39.81l-3.75-4.75a247.45,247.45,0,0,0-37,26.25c-4,3.43-8.15,7.18-12.19,11.18h0Z" style="fill: rgb(255, 181, 115); isolation: isolate; transform-origin: 414.12px 323.821px;" id="el4dsnardjgru" class="animable"></path><g id="elu5atzrup3p"><path d="M388.83,341.59c1.72,4.91,7.49,7.07,11.53,4a5.85,5.85,0,0,0,.47-.4c17.5-16.2,39.76-39.81,39.76-39.81l-3.75-4.75a247.45,247.45,0,0,0-37,26.25c-4,3.43-8.15,7.18-12.19,11.18h0Z" style="fill: rgb(38, 50, 56); opacity: 0.8; isolation: isolate; transform-origin: 414.12px 323.821px;" class="animable"></path></g><path d="M434.57,301.23a5.16,5.16,0,0,1,1.28-2.13c2.1-2.19,7.78-7.83,7.78-7.83l.51.51s-2.56,3-3.66,4.72.35.8,2.64.15,5.95.14,9.37,3.36c4,3.79,5.46,5.54,3.43,5.37s-5.22-2.11-5.22-2.11-8.67,1.59-12.19,5.3c-3.78,4-4.6-4.67-6-5.14C432.21,303,434.42,301.73,434.57,301.23Z" style="fill: rgb(38, 50, 56); transform-origin: 444.656px 300.446px;" id="elb5yuo88rg" class="animable"></path><path d="M374.51,205.92c1.88,2.24,3.34,5,.84,8.25a3.81,3.81,0,0,0-.82,2.44c.06,1.41,1,2.73,5.32-.29,6.3-4.36,5.44-8.73,5.44-8.73-3.52-.82-6.08-8-7.16-12.07Z" style="fill: rgb(255, 181, 115); transform-origin: 379.92px 206.834px;" id="eldglfav2dez" class="animable"></path><g id="elypibf78cm8"><path d="M378.19,201.79c.62,1.74-1.05,4.7-2.39,5.92a11.89,11.89,0,0,0-1.28-1.79l2.14-6.16A6.36,6.36,0,0,1,378.19,201.79Z" style="opacity: 0.2; isolation: isolate; transform-origin: 376.422px 203.735px;" class="animable"></path></g><path d="M359.48,186.83c-1.68,6.53.82,13.69,5.43,18.61,4.66-5.11,13.47-4,18.37-8.88,3.28-3.24,3.88-8.68,1.85-12.82-2.18-4.46-8.62-8.76-13.7-8.06C365.74,176.47,360.89,181.33,359.48,186.83Z" style="fill: rgb(38, 50, 56); transform-origin: 372.629px 190.522px;" id="el5ipwl2bpji" class="animable"></path><path d="M378.89,184.61a9.16,9.16,0,0,0-12.74-2.41c-5.91,4-4.81,14-2.17,19.65,2.9,6.32,11.37,6.58,15.32.38,2.65-4.13,2.09-6.95,1.11-13.66A9.27,9.27,0,0,0,378.89,184.61Z" style="fill: rgb(255, 181, 115); transform-origin: 371.535px 193.671px;" id="eltdqjbpxrxh" class="animable"></path><path d="M367.32,198.61a2.35,2.35,0,0,1-2,0,14.49,14.49,0,0,0,1.21-3.85Z" style="fill: rgb(237, 137, 62); transform-origin: 366.32px 196.797px;" id="el1gxdka6t6p5" class="animable"></path><path d="M372.45,198a.15.15,0,0,0-.09-.21.17.17,0,0,0-.21.09,4.28,4.28,0,0,1-3.12,2.4.18.18,0,0,0-.12.2h0a.15.15,0,0,0,.18.12,5,5,0,0,0,.76-.21A4.53,4.53,0,0,0,372.45,198Z" style="fill: rgb(38, 50, 56); transform-origin: 370.687px 199.192px;" id="elc7oezzo4m2h" class="animable"></path><path d="M367.7,179.15a7,7,0,0,0-1,2.8c7.81,1.8,13.57,10,15.79,17.77,2.11-2.78,6.25-6.18,7.86-9.52,1.79-3.75-.6-8-4.2-10.1a64.69,64.69,0,0,0-9.9-3.91A7.38,7.38,0,0,0,367.7,179.15Z" style="fill: rgb(38, 50, 56); transform-origin: 378.829px 187.76px;" id="elw3vtj6kfgcc" class="animable"></path><path d="M383.35,192.61a2.21,2.21,0,0,0-2.61-1.73c-1.65.36-2.25,2.67-2.15,4.15.14,1.63,1.41,2.76,2.81,1.74a5,5,0,0,0,2-3.24A2.37,2.37,0,0,0,383.35,192.61Z" style="fill: rgb(255, 181, 115); transform-origin: 381.002px 193.997px;" id="elrs9tapjve4" class="animable"></path><path d="M370.48,192c.18.65,0,1.28-.46,1.4s-.91-.32-1.08-1,0-1.28.45-1.39S370.3,191.29,370.48,192Z" style="fill: rgb(38, 50, 56); transform-origin: 369.712px 192.206px;" id="elslebseamlb" class="animable"></path><path d="M364.52,194.09c.18.65,0,1.28-.46,1.39s-.91-.32-1.09-1,0-1.28.46-1.4S364.35,193.42,364.52,194.09Z" style="fill: rgb(38, 50, 56); transform-origin: 363.745px 194.279px;" id="elyembbkkwp4h" class="animable"></path><path d="M363.63,193.09l-1.69,0S363.07,194.07,363.63,193.09Z" style="fill: rgb(38, 50, 56); transform-origin: 362.785px 193.308px;" id="el16rkjzwboz8" class="animable"></path><path d="M371.74,189a.34.34,0,0,0,.12-.12.34.34,0,0,0-.09-.46h0a3.82,3.82,0,0,0-3.53-.42.35.35,0,0,0-.17.44.34.34,0,0,0,.43.17,3.19,3.19,0,0,1,2.92.37A.35.35,0,0,0,371.74,189Z" style="fill: rgb(38, 50, 56); transform-origin: 369.98px 188.389px;" id="elcazeusz9fh" class="animable"></path><path d="M361.69,192.57a.71.71,0,0,0,.1-.14,3.24,3.24,0,0,1,2.16-2,.33.33,0,0,0,.27-.38h0a.33.33,0,0,0-.4-.25,3.91,3.91,0,0,0-2.65,2.39.33.33,0,0,0,.16.44.36.36,0,0,0,.36-.05Z" style="fill: rgb(38, 50, 56); transform-origin: 362.682px 191.224px;" id="elicuey5kj8qg" class="animable"></path><path d="M369.59,191l-1.69,0S369,191.93,369.59,191Z" style="fill: rgb(38, 50, 56); transform-origin: 368.745px 191.207px;" id="eliblpmmvti9g" class="animable"></path><path d="M360.77,196.26c.77,4.11,4.1,9.78,7.65,12-2.39,1.81-6.67-.24-9.19-1.85a10.59,10.59,0,0,1-4.51-7.45,18,18,0,0,1,1.18-8.81,26.63,26.63,0,0,1,8.79-11.36c.76-.62,2.06-1.11,2.56-.27.35.58-.05,1.31-.43,1.86C363.13,185.72,360.23,189.48,360.77,196.26Z" style="fill: rgb(38, 50, 56); transform-origin: 361.509px 193.52px;" id="el6250p0idfs3" class="animable"></path><path d="M379.33,203.77h-.06a.25.25,0,0,1-.18-.3c2.67-10.79-8.9-19-12.51-21.3a.25.25,0,0,1-.08-.34.24.24,0,0,1,.34-.08c3.69,2.31,15.49,10.72,12.74,21.84A.25.25,0,0,1,379.33,203.77Z" style="fill: rgb(38, 50, 56); transform-origin: 373.228px 192.74px;" id="elflc92zs6ej7" class="animable"></path><polygon points="381.36 195.95 381.14 199.76 382.16 200.6 382.66 199.43 381.36 195.95" style="fill: rgb(44, 85, 199); transform-origin: 381.9px 198.275px;" id="elgqoisnmkzz4" class="animable"></polygon><path d="M398.21,207.4a4.71,4.71,0,0,0-4.52,1.26,9.09,9.09,0,0,0-2.3,5.05c-.37,2.88.36,5.8,1.14,8.61a29.21,29.21,0,0,1,1.58,8.6c3.06-1.67,7.51-5,11.79-5.44-.59-6.81-1.38-11.35-2.7-13.6a12.54,12.54,0,0,0-2.71-3.56A6.19,6.19,0,0,0,398.21,207.4Z" style="fill: rgb(44, 85, 199); transform-origin: 398.595px 219.087px;" id="els5t6a1xifm" class="animable"></path><g id="el4kj888urs66"><g style="opacity: 0.1; transform-origin: 398.595px 219.087px;" class="animable"><path d="M398.21,207.4a4.71,4.71,0,0,0-4.52,1.26,9.09,9.09,0,0,0-2.3,5.05c-.37,2.88.36,5.8,1.14,8.61a29.21,29.21,0,0,1,1.58,8.6c3.06-1.67,7.51-5,11.79-5.44-.59-6.81-1.38-11.35-2.7-13.6a12.54,12.54,0,0,0-2.71-3.56A6.19,6.19,0,0,0,398.21,207.4Z" style="fill: rgb(255, 255, 255); transform-origin: 398.595px 219.087px;" id="ellx6kuzlfdc9" class="animable"></path></g></g><path d="M325.33,239.5s-7.55,1.25-7.65,1.59-.06,4.59-.06,4.59l6.78-2.57Z" style="fill: rgb(255, 181, 115); transform-origin: 321.471px 242.59px;" id="elzf3nwiclx0f" class="animable"></path><polygon points="317.62 245.68 311.24 239.67 314.09 238.84 318.82 241.41 317.62 245.68" style="fill: rgb(255, 181, 115); transform-origin: 315.03px 242.26px;" id="elcmff3girm57" class="animable"></polygon></g><g id="freepik--character-1--inject-186" class="animable" style="transform-origin: 117.933px 282.188px;"><polygon points="125.01 398.18 132.14 397.79 132.77 414.68 125.64 415.06 125.01 398.18" style="fill: rgb(247, 151, 141); transform-origin: 128.89px 406.425px;" id="elp2do8vvcxah" class="animable"></polygon><path d="M134.52,413.15c2.22,1.37,5.43,2.57,11.28,3.16,1.3.13,1.72,3.1-1.29,3.43s-8.26.8-10.44,1c-3.55.38-4.87.7-7.67,1.05a1.28,1.28,0,0,1-1.4-1.14l-.3-6.42a.51.51,0,0,1,.48-.55l8.06-.88A2.06,2.06,0,0,1,134.52,413.15Z" style="fill: rgb(38, 50, 56); transform-origin: 135.743px 417.296px;" id="elpr0db5hrfq" class="animable"></path><g id="elpi34xjrbzk"><polygon points="125.33 406.89 132.47 406.5 132.14 397.8 125.01 398.19 125.33 406.89" style="opacity: 0.2; isolation: isolate; transform-origin: 128.74px 402.345px;" class="animable"></polygon></g><path d="M138,413.75a.92.92,0,0,0,.11-.92.65.65,0,0,0-.45-.43c-.91-.25-2.79,1.36-3,1.55a.18.18,0,0,0,0,.17.22.22,0,0,0,.15.13,8.9,8.9,0,0,0,1.93,0A2,2,0,0,0,138,413.75Zm-2.8.2c.76-.57,1.9-1.35,2.39-1.21a.32.32,0,0,1,.21.21.58.58,0,0,1,0,.61c-.3.39-1.24.53-2.56.41Z" style="fill: rgb(44, 85, 199); transform-origin: 136.412px 413.338px;" id="elcjppr6n6te" class="animable"></path><path d="M134.88,414.21c.67-.51,1.57-2.13,1.33-2.89a.66.66,0,0,0-.66-.44.83.83,0,0,0-.69.31c-.65.78-.22,2.83-.24,2.91a.16.16,0,0,0,.09.13l.09,0Zm.63-3c.25,0,.36.12.34.21a3.3,3.3,0,0,1-1,2.31,3.87,3.87,0,0,1,.22-2.33.47.47,0,0,1,.35-.18Z" style="fill: rgb(44, 85, 199); transform-origin: 135.374px 412.554px;" id="elcqzd90mcxfo" class="animable"></path><polygon points="68.66 390.69 75.73 392.18 70.58 408.18 63.52 406.68 68.66 390.69" style="fill: rgb(247, 151, 141); transform-origin: 69.625px 399.435px;" id="elk2pmpvuner" class="animable"></polygon><path d="M72.5,408.19c1.65,2,5.07,4.42,10.45,6.8,1.2.54.67,3.48-2.29,2.86s-8.83-2.11-11-2.56c-3.49-.74-4.84-.86-7.61-1.39h0a1.27,1.27,0,0,1-1-1.52l1.71-6.2a.52.52,0,0,1,.62-.37l7.94,1.68A2.07,2.07,0,0,1,72.5,408.19Z" style="fill: rgb(38, 50, 56); transform-origin: 72.284px 411.866px;" id="elhs8e6h55atw" class="animable"></path><g id="eldo9d2b952oe"><polygon points="66.01 398.94 73.07 400.43 75.73 392.19 68.66 390.7 66.01 398.94" style="opacity: 0.2; isolation: isolate; transform-origin: 70.87px 395.565px;" class="animable"></polygon></g><path d="M113.55,241s7.52,65.07,8.09,89.4c.53,22.41.16,72,.16,72l13-.61s5.41-46.07,7-68.66c1.42-20.67-3-86.81-3-86.81Z" style="fill: rgb(44, 85, 199); transform-origin: 127.816px 321.7px;" id="elbgpnxoqcdok" class="animable"></path><g id="elet2929k48j"><path d="M116.64,266.67c1.16,13.46,2.74,30.78,4.18,45.27,3-8.38,4.8-29.48,1.24-42.41C119.91,261.66,118,263.39,116.64,266.67Z" style="opacity: 0.2; isolation: isolate; transform-origin: 120.333px 287.924px;" class="animable"></path></g><polygon points="119.67 399.8 136.44 398.52 135.67 404.03 121.56 405.2 119.67 399.8" style="fill: rgb(38, 50, 56); transform-origin: 128.055px 401.86px;" id="elwxw57ubo9dk" class="animable"></polygon><path d="M98.83,243.51S86.69,303.4,82.5,327.37c-3.87,22.08-19,68.9-19,68.9L76.4,399s21.44-47.37,27.38-69.24c5.43-20,19-81.19,19-81.19Z" style="fill: rgb(44, 85, 199); transform-origin: 93.14px 321.255px;" id="eldn8tfyg9djn" class="animable"></path><polygon points="63.15 391.88 80.53 394.76 78.72 399.5 62.94 396.16 63.15 391.88" style="fill: rgb(38, 50, 56); transform-origin: 71.735px 395.69px;" id="el1b2l3vqs44i" class="animable"></polygon><path d="M75,409.19a.91.91,0,0,0,.39-.86.61.61,0,0,0-.28-.55c-.78-.52-3.08.42-3.34.53a.23.23,0,0,0-.1.16.18.18,0,0,0,.1.15,9.28,9.28,0,0,0,1.83.65A2,2,0,0,0,75,409.19Zm-2.67-.73c.92-.35,2.22-.7,2.6-.4a.3.3,0,0,1,.13.27.6.6,0,0,1-.24.57c-.4.25-1.34.09-2.55-.42Z" style="fill: rgb(44, 85, 199); transform-origin: 73.5333px 408.492px;" id="elx7u8wakoo2h" class="animable"></path><path d="M71.89,408.63c.78-.28,2.16-1.52,2.16-2.33a.65.65,0,0,0-.49-.63.83.83,0,0,0-.75.09c-.86.54-1.12,2.6-1.14,2.69a.15.15,0,0,0,.06.14l.08,0ZM73.45,406c.24.09.29.21.27.31,0,.53-.94,1.5-1.66,1.89A3.74,3.74,0,0,1,73,406a.49.49,0,0,1,.39-.06Z" style="fill: rgb(44, 85, 199); transform-origin: 72.8594px 407.124px;" id="ele44hfvjm67i" class="animable"></path><path d="M75.14,256.87c1.68-1.68,1.93-3.52,3-5.47.71-1.33-.93-.81.71-.64a8,8,0,0,1,1.76.61c1.42.55,2.79,1.23,4.23,1.74,1.23.44,3.44.24,4.49.85,1.7,1,.07,5.4-.29,6.82-.42,1.72,2.21,2.62,2.63.88.62-2.48,2.2-6.9.29-9.23-1.19-1.45-3-1.16-4.66-1.48-3.11-.6-6.29-3.44-9.55-3.1a2.45,2.45,0,0,0-2.21,1.61c-.52,1.14-.22,2.41-.9,3.61a8.3,8.3,0,0,1-1.3,1.71c-1.26,1.26.56,3.35,1.83,2.09Z" style="fill: rgb(44, 85, 199); transform-origin: 82.8943px 255.211px;" id="elylxn475xnrn" class="animable"></path><g id="elocd8v0ekczh"><g style="opacity: 0.3; transform-origin: 82.8943px 255.211px;" class="animable"><path d="M75.14,256.87c1.68-1.68,1.93-3.52,3-5.47.71-1.33-.93-.81.71-.64a8,8,0,0,1,1.76.61c1.42.55,2.79,1.23,4.23,1.74,1.23.44,3.44.24,4.49.85,1.7,1,.07,5.4-.29,6.82-.42,1.72,2.21,2.62,2.63.88.62-2.48,2.2-6.9.29-9.23-1.19-1.45-3-1.16-4.66-1.48-3.11-.6-6.29-3.44-9.55-3.1a2.45,2.45,0,0,0-2.21,1.61c-.52,1.14-.22,2.41-.9,3.61a8.3,8.3,0,0,1-1.3,1.71c-1.26,1.26.56,3.35,1.83,2.09Z" id="elolwoy691av" class="animable" style="transform-origin: 82.8943px 255.211px;"></path></g></g><g id="elrg03qq9xu8"><path d="M49,257.22h52.73a3.24,3.24,0,0,1,3.24,3.24v28.22a5.59,5.59,0,0,1-5.59,5.59h-48a5.59,5.59,0,0,1-5.59-5.59V260.46A3.24,3.24,0,0,1,49,257.22Z" style="fill: rgb(44, 85, 199); transform-origin: 75.38px 275.745px; transform: rotate(18.53deg);" class="animable"></path></g><g id="el5m9ci8jsr0e"><path d="M49,257.22h52.73a3.24,3.24,0,0,1,3.24,3.24v28.22a5.59,5.59,0,0,1-5.59,5.59h-48a5.59,5.59,0,0,1-5.59-5.59V260.46A3.24,3.24,0,0,1,49,257.22Z" style="fill: rgb(255, 255, 255); opacity: 0.3; transform-origin: 75.38px 275.745px; transform: rotate(18.53deg);" class="animable"></path></g><g id="el1y4uhzs8hxc"><rect x="63.03" y="281.35" width="23.82" height="1" style="fill: rgb(44, 85, 199); transform-origin: 74.94px 281.85px; transform: rotate(-70.71deg);" class="animable"></rect></g><g id="elk43b5km9nsk"><g style="opacity: 0.3; transform-origin: 74.94px 281.85px;" class="animable"><g id="elvxxpkkb3l8"><rect x="63.03" y="281.35" width="23.82" height="1" class="animable" style="transform-origin: 74.94px 281.85px; transform: rotate(-70.71deg);"></rect></g></g></g><g id="elcfqwq4zt47m"><path d="M105.37,269.82,54.91,252.91a3,3,0,0,0-3.79,1.89l-.35,1a8.45,8.45,0,0,0,5.32,10.69L96.23,280a8.44,8.44,0,0,0,10.68-5.33l.35-1A3,3,0,0,0,105.37,269.82Z" style="opacity: 0.2; transform-origin: 78.8826px 266.596px;" class="animable"></path></g><path d="M106.48,266.64,56,249.73a3,3,0,0,0-3.8,1.89l-.35,1a8.45,8.45,0,0,0,5.32,10.69L97.34,276.8A8.44,8.44,0,0,0,108,271.47l.35-1A3,3,0,0,0,106.48,266.64Z" style="fill: rgb(44, 85, 199); transform-origin: 79.9655px 263.401px;" id="eltl6e2yu3dp" class="animable"></path><path d="M106.48,266.64,56,249.73a3,3,0,0,0-3.8,1.89l-.35,1a8.45,8.45,0,0,0,5.32,10.69L97.34,276.8A8.44,8.44,0,0,0,108,271.47l.35-1A3,3,0,0,0,106.48,266.64Z" style="fill: rgb(44, 85, 199); transform-origin: 79.9655px 263.401px;" id="elaizdx5brouo" class="animable"></path><g id="ellt0phkyyrh"><path d="M106.48,266.64,56,249.73a3,3,0,0,0-3.8,1.89l-.35,1a8.45,8.45,0,0,0,5.32,10.69L97.34,276.8A8.44,8.44,0,0,0,108,271.47l.35-1A3,3,0,0,0,106.48,266.64Z" style="fill: rgb(255, 255, 255); opacity: 0.5; transform-origin: 79.9655px 263.401px;" class="animable"></path></g><g id="ely3lj8qxox3g"><rect x="60.6" y="260.43" width="5.66" height="11.9" rx="1.95" style="fill: rgb(44, 85, 199); transform-origin: 63.43px 266.38px; transform: rotate(18.52deg);" class="animable"></rect></g><g id="elb1ykqopulie"><rect x="87.78" y="269.53" width="5.66" height="11.9" rx="1.95" style="fill: rgb(44, 85, 199); transform-origin: 90.61px 275.48px; transform: rotate(18.51deg);" class="animable"></rect></g><g id="eldhlne7jjla9"><rect x="60.6" y="260.43" width="5.66" height="11.9" rx="1.95" style="fill: rgb(255, 255, 255); transform-origin: 63.43px 266.38px; transform: rotate(18.52deg);" class="animable"></rect></g><g id="elucxyqp6cuj"><rect x="87.78" y="269.53" width="5.66" height="11.9" rx="1.95" style="fill: rgb(255, 255, 255); transform-origin: 90.61px 275.48px; transform: rotate(18.51deg);" class="animable"></rect></g><path d="M147.86,192.3c.45.89,1,1.95,1.54,2.92s1.1,2,1.67,3c1.15,1.95,2.32,3.87,3.56,5.69a58.37,58.37,0,0,0,3.88,5.09,17.34,17.34,0,0,0,3.93,3.52l.2.12h.09l.25,0a4,4,0,0,0,1.61-.37,19.63,19.63,0,0,0,4.71-3.16,48.71,48.71,0,0,0,4.72-4.59c.76-.84,1.52-1.67,2.25-2.54s1.48-1.79,2.13-2.59l.12-.16a3.89,3.89,0,0,1,6.46,4.33,63,63,0,0,1-9,12.52,29.13,29.13,0,0,1-6.78,5.38,14.64,14.64,0,0,1-5.21,1.73,10.94,10.94,0,0,1-3.33-.1,10,10,0,0,1-1.69-.45,4.07,4.07,0,0,1-.79-.32l-.6-.27a27.48,27.48,0,0,1-7.23-5.44,54.14,54.14,0,0,1-5.17-6c-1.54-2.07-3-4.17-4.3-6.33-.7-1.07-1.32-2.12-1.94-3.25s-1.21-2.16-1.84-3.41a6,6,0,1,1,10.75-5.45h0Z" style="fill: rgb(38, 50, 56); transform-origin: 161.012px 206.067px;" id="eltpd2e0pzbfr" class="animable"></path><path d="M181.73,202.42l5.67,2.06-.39-6.62s-5.9-2.09-6.68,1v1.45A2.19,2.19,0,0,0,181.73,202.42Z" style="fill: rgb(247, 151, 141); transform-origin: 183.864px 200.825px;" id="elyq4n4z3hpta" class="animable"></path><polygon points="193.23 202.91 194.43 197.25 187.01 197.85 187.4 204.48 193.23 202.91" style="fill: rgb(247, 151, 141); transform-origin: 190.72px 200.865px;" id="elunw6zri8kyc" class="animable"></polygon><g id="freepik--Character--inject-2--inject-186" class="animable" style="transform-origin: 114.103px 200.156px;"><g id="elu7fpj5kl5sf"><path d="M149.54,215.5c-.66-.77-1.3-1.53-1.92-2.3a63.18,63.18,0,0,1-5.22-7.84,80.85,80.85,0,0,1-4.1-8.23c-.17-.4-.33-.8-.49-1.2,3-1.81,9.48-.92,11.57,7.49A31.28,31.28,0,0,1,149.54,215.5Z" style="opacity: 0.3; isolation: isolate; transform-origin: 143.931px 205.325px;" class="animable"></path></g><path d="M136.55,251.49l-37.72-8c.44-3.43,3.52-14.24,5.92-28.33a225.79,225.79,0,0,0,2.59-29.36s0-.06,0-.09a4.61,4.61,0,0,1,4.87-4.35l.08,0c2.35.14,5.28.41,8.11.86a146.26,146.26,0,0,1,16.05,3.4,43,43,0,0,1,5.1,2,7,7,0,0,1,4.21,5.82C146.43,201.76,146.11,217.89,136.55,251.49Z" style="fill: rgb(255, 255, 255); transform-origin: 122.404px 216.421px;" id="ely1ob7br1r2" class="animable"></path><path d="M131.79,191.1l-1.08,2.16a.91.91,0,0,1-.83.6L128,193.7c-.27,0-.49-.24-.59-.59l-.76-2.59,2.8-1.74Z" style="fill: rgb(44, 85, 199); transform-origin: 129.22px 191.32px;" id="elyl2vqczwhfq" class="animable"></path><path d="M120,181.59c-3-.48-6.07-.75-8.55-.91l-.08,0h-.14a4.86,4.86,0,0,0-5,4.69,240.58,240.58,0,0,1-2.72,31c-3.67,26.29-7.3,31.52-7.3,31.52L113,251c5.09-23.88,9-56.5,8.6-69.19Z" style="fill: rgb(38, 50, 56); transform-origin: 108.919px 215.839px;" id="el9q2kd08ot0c" class="animable"></path><g id="el51bmk5hcv1f"><path d="M104.07,212.67c1.22-8.49,1.75-17.25,2-23.65a1.94,1.94,0,0,1,.26-.23c2.11-1.8,7.38,2.51,5.94,10.58C110.94,207,107.21,211.64,104.07,212.67Z" style="opacity: 0.3; isolation: isolate; transform-origin: 108.293px 200.527px;" class="animable"></path></g><path d="M139.39,257l-10.16-2.72c6.38-44.75,7.87-56.64,6.43-69.18a73.82,73.82,0,0,1,7.43,2.38,8.18,8.18,0,0,1,4.58,6.64C148.53,201.1,143.21,219,139.39,257Z" style="fill: rgb(38, 50, 56); transform-origin: 138.496px 221.05px;" id="elbpne6gnj5hc" class="animable"></path><path d="M127.68,238.51a2.15,2.15,0,0,1,2.88,1h0a2.16,2.16,0,1,1-2.89-.95Z" style="fill: rgb(38, 50, 56); transform-origin: 128.636px 240.472px;" id="el0so0lf9eqn2" class="animable"></path><path d="M126.41,241.6a2.51,2.51,0,0,1,1.09-3.38h0a2.47,2.47,0,0,1,1.92-.15,2.51,2.51,0,1,1-3,3.53Z" style="fill: rgb(255, 255, 255); transform-origin: 128.65px 240.457px;" id="el63skz6eazr6" class="animable"></path><path d="M129.71,188.83c-8.05-1.25-9.93-6.62-9.93-6.62,4.23-2.75,4.88-12.46,4.79-17.88l3.53,4.47,4.82,6.09a23.43,23.43,0,0,0-.87,2.29c-1,3.1-.77,6.17,3.66,8.26C135.71,185.44,136.57,189.87,129.71,188.83Z" style="fill: rgb(247, 151, 141); transform-origin: 127.762px 176.659px;" id="elvlivigoo52" class="animable"></path><path d="M118.28,181.26l2.64-.38a24.78,24.78,0,0,0,8.26,7.84,9.51,9.51,0,0,0-4.33,3.49C117,187.55,118.28,181.26,118.28,181.26Z" style="fill: rgb(255, 255, 255); transform-origin: 123.691px 186.545px;" id="elf1zmd7q3l36" class="animable"></path><path d="M135.77,185l-2.18-1s-1.93,4.56-4.42,4.73c3.77,2.46,4,4.63,4,4.63C139.49,192.72,135.77,185,135.77,185Z" style="fill: rgb(255, 255, 255); transform-origin: 133.014px 188.68px;" id="elzf9ldpt8i4" class="animable"></path><g id="eluq9a3u4qp"><path d="M132.31,176.45l-4.62-5.8a10.6,10.6,0,0,0-.38,2.24c-.15,2.3,2.24,5.21,4.32,6.13Z" style="opacity: 0.2; isolation: isolate; transform-origin: 129.807px 174.835px;" class="animable"></path></g><path d="M137.38,165.86s.25,3.6,4,2.22c.16-3.83,1.42-3.54,2.72-5.79a8.31,8.31,0,0,0,.5-8.51l-2.39-1.21C132.89,149.68,137.38,165.86,137.38,165.86Z" style="fill: rgb(38, 50, 56); transform-origin: 140.919px 160.31px;" id="el92r4p97i37w" class="animable"></path><g id="elg0pdyy0nxmc"><path d="M137.38,165.86s.25,3.6,4,2.22c.16-3.83,1.42-3.54,2.72-5.79a8.31,8.31,0,0,0,.5-8.51l-2.39-1.21C132.89,149.68,137.38,165.86,137.38,165.86Z" style="fill: rgb(255, 255, 255); opacity: 0.6; transform-origin: 140.919px 160.31px;" class="animable"></path></g><path d="M127.64,151.3a9.45,9.45,0,0,1,13.34-.76c5.81,4.93,3.77,15.43.5,21.12a9.34,9.34,0,0,1-16.52-.34c-2.41-4.66-1.13-8.67.48-15.67A9.48,9.48,0,0,1,127.64,151.3Z" style="fill: rgb(247, 151, 141); transform-origin: 134.142px 162.309px;" id="elxzq4wlszsv" class="animable"></path><path d="M124.3,162s.94,3.11,4.34,1.45c-.59-3.36.69-3.27,1.53-5.4a6.84,6.84,0,0,0-1.15-7.54l-2.57-.75C114.23,148.61,124.3,162,124.3,162Z" style="fill: rgb(38, 50, 56); transform-origin: 125.611px 156.814px;" id="elmmn206132ok" class="animable"></path><g id="elxydtotg0g2h"><path d="M124.3,162s.94,3.11,4.34,1.45c-.59-3.36.69-3.27,1.53-5.4a6.84,6.84,0,0,0-1.15-7.54l-2.57-.75C114.23,148.61,124.3,162,124.3,162Z" style="fill: rgb(255, 255, 255); opacity: 0.6; transform-origin: 125.611px 156.814px;" class="animable"></path></g><path d="M136.43,142.81a3.8,3.8,0,0,0-3.76.67c-.67.58-1.32,1.47-2.19,1.3a3.2,3.2,0,0,1-1.14-.71c-1.4-1-3.44-.57-4.8.49a14.43,14.43,0,0,0-3.12,4.08,9.38,9.38,0,0,1-3.47,3.75,10.92,10.92,0,0,0,8.92.22,5.89,5.89,0,0,1-3.12,2,12.12,12.12,0,0,0,8.5-.69c1.49-.71,2.87-1.74,4.5-2s3.63.6,3.78,2.24a1.61,1.61,0,0,1,2.22-.77,4.43,4.43,0,0,1,1.74,2,5.11,5.11,0,0,0,1.65,2.07,1.69,1.69,0,0,0,2.34-.44,2.51,2.51,0,0,1-2.3-2.31,4.29,4.29,0,0,0,2.89.47c-1.3-.08-3.85-4.73-4.24-6a6.07,6.07,0,0,0-2.07-3.24c-1.22-.84-2.45.62-3.6,0S137.73,143.3,136.43,142.81Z" style="fill: rgb(38, 50, 56); transform-origin: 133.51px 150.165px;" id="elz50n8skssh" class="animable"></path><path d="M134.81,168.07a4.59,4.59,0,0,1-1.63-3.11l2,.8c.85.33,3.29,1.36,2.75,2.7S135.46,168.6,134.81,168.07Z" style="fill: rgb(38, 50, 56); transform-origin: 135.594px 167.016px;" id="elr7ktu2wc3v" class="animable"></path><path d="M140.55,170.27a4.59,4.59,0,0,0,3.22-1.42l-2.09-.64c-.87-.27-3.42-1-3.84.41S139.7,170.28,140.55,170.27Z" style="fill: rgb(38, 50, 56); transform-origin: 140.779px 169.025px;" id="elrupv3mrafbq" class="animable"></path><path d="M137.78,168a3.31,3.31,0,0,0,2.76.36,21.48,21.48,0,0,1-1.24-5.65Z" style="fill: rgb(255, 86, 82); transform-origin: 139.16px 165.611px;" id="elmupzxc2iykp" class="animable"></path><path d="M124.7,157.18c1.7.57,2.37,3.42,2.29,5.2-.09,2-1.4,3.23-2.87,2a6.68,6.68,0,0,1-2.07-4C121.79,158.38,123,156.6,124.7,157.18Z" style="fill: rgb(247, 151, 141); transform-origin: 124.506px 160.97px;" id="el9tlnhtx2ydt" class="animable"></path><path d="M136,160.34c.36.13.5.73.35,1.24s-.58.86-.94.74-.48-.65-.36-1.22S135.63,160.22,136,160.34Z" style="fill: rgb(38, 50, 56); transform-origin: 135.707px 161.329px;" id="el84mgb63mhr6" class="animable"></path><path d="M142.31,162.08c.37.12.52.66.36,1.22s-.59.93-.95.8-.52-.67-.36-1.23S142,162,142.31,162.08Z" style="fill: rgb(38, 50, 56); transform-origin: 142.016px 163.097px;" id="elyjoou6piiks" class="animable"></path><path d="M137.15,171.09a.19.19,0,0,0,.2-.14.18.18,0,0,0-.14-.2,4.79,4.79,0,0,1-3.51-2.37.18.18,0,0,0-.23-.08.18.18,0,0,0-.08.23,5,5,0,0,0,3.1,2.42C136.7,171,136.93,171,137.15,171.09Z" style="fill: rgb(38, 50, 56); transform-origin: 135.363px 169.688px;" id="el4lp76yoyl9x" class="animable"></path><path d="M142.09,159.67a.35.35,0,0,0,.21.25,2.88,2.88,0,0,1,1.85,1.72.32.32,0,0,0,.4.24h0a.35.35,0,0,0,.23-.42h0a3.53,3.53,0,0,0-2.28-2.19.35.35,0,0,0-.43.22A.28.28,0,0,0,142.09,159.67Z" style="fill: rgb(38, 50, 56); transform-origin: 143.427px 160.574px;" id="elwdp5z49803k" class="animable"></path><path d="M134.8,157.89a.37.37,0,0,0,.32.06,2.91,2.91,0,0,1,2.52.23.33.33,0,0,0,.46-.06v0a.34.34,0,0,0-.07-.47h0a3.49,3.49,0,0,0-3.14-.32.33.33,0,0,0-.21.43A.42.42,0,0,0,134.8,157.89Z" style="fill: rgb(38, 50, 56); transform-origin: 136.412px 157.672px;" id="el49isrz1fcna" class="animable"></path><path d="M80.75,244.9l-1.3-.14c-3.06,1.47.26,7.13.26,7.13l9-1.1-2.61-3A8.33,8.33,0,0,0,80.75,244.9Z" style="fill: rgb(247, 151, 141); transform-origin: 83.4321px 248.325px;" id="el1q45l4fuxj4" class="animable"></path><path d="M89,254.67l-.3-3.89-9,1.1.5,4.61a1.42,1.42,0,0,0,0,.2,1.37,1.37,0,0,0,1.67,1L88,256.08A1.37,1.37,0,0,0,89,254.67Z" style="fill: rgb(247, 151, 141); transform-origin: 84.3515px 254.256px;" id="eli4ew5zjukka" class="animable"></path><path d="M133.18,228.59s-3.13,7.53-4.51,6.49-4.56-6.8-4.57-6.92S128,193.7,128,193.7l1.87.16C129.11,197.71,133.18,228.59,133.18,228.59Z" style="fill: rgb(44, 85, 199); transform-origin: 128.64px 214.439px;" id="elx0eu7ri4i8" class="animable"></path></g><path d="M81.64,210C77.9,215.32,77,240.42,78,246.87a4.91,4.91,0,0,1,6.41-.8c.09-4.42,3.67-20.21,5.21-26.8a8,8,0,0,1,3.07-4.61c6.6-4.78,18.55-14.24,19.87-18,2.13-6,.3-18.3-5-14.52C102.54,185.75,84.61,205.71,81.64,210Z" style="fill: rgb(38, 50, 56); transform-origin: 95.525px 214.151px;" id="eld5wid08k2gp" class="animable"></path></g><g id="freepik--Birds--inject-186" class="animable animator-active" style="transform-origin: 251.805px 91.1882px;"><path d="M380.85,83.45a13,13,0,0,1-2.09-.68c-1.26-.49-2.87-1.32-4.56-2.13a13.85,13.85,0,0,0-4.46-1.34c-1.19-.13-2,0-2.11-.31s.59-.89,2-1.16a9.19,9.19,0,0,1,5.43.93,16.77,16.77,0,0,1,4.23,3.14C380.27,82.83,380.85,83.45,380.85,83.45Z" style="fill: rgb(44, 85, 199); transform-origin: 374.234px 80.5983px;" id="elfukeyx7qpv" class="animable"></path><path d="M388.19,77.54l-1.51.59c-.9.37-2,.89-3.3,1.44-2.53,1.12-4.69,2.28-5,1.77-.16-.23.17-.8.9-1.5a11.27,11.27,0,0,1,3.32-2.18,7.58,7.58,0,0,1,4-.56,6,6,0,0,1,1.21.29Z" style="fill: rgb(44, 85, 199); transform-origin: 383.265px 79.2496px;" id="elk0eqkje0uva" class="animable"></path><path d="M367.23,87.86l-.41-.25c-.26-.17-.65-.39-1.12-.64a24,24,0,0,0-3.7-1.61c-2.94-1.06-5.57-.82-5.65-1.27,0-.2.6-.54,1.74-.7a9.91,9.91,0,0,1,4.42.49,8.81,8.81,0,0,1,3.68,2.48,6.76,6.76,0,0,1,.8,1.08Z" style="fill: rgb(44, 85, 199); transform-origin: 361.79px 85.5918px;" id="elu1i8pb0989" class="animable"></path><path d="M370.12,81.78l-1.06.61-2.35,1.31c-1.77,1-3.14,2.11-3.48,1.81-.15-.15,0-.62.45-1.23a7.25,7.25,0,0,1,2.28-2,6,6,0,0,1,2.92-.7A5,5,0,0,1,370.12,81.78Z" style="fill: rgb(44, 85, 199); transform-origin: 366.647px 83.5695px;" id="elr8ub8tra8f" class="animable"></path><path d="M364.79,78.32s-1-.35-2.52-1-3.57-1.55-5.82-2.29a16,16,0,0,0-5.89-.82c-1.54.09-2.52.39-2.66.11s.67-1,2.39-1.55a11.75,11.75,0,0,1,6.81.28,17.11,17.11,0,0,1,5.72,3.39A24,24,0,0,1,364.79,78.32Z" style="fill: rgb(44, 85, 199); transform-origin: 356.337px 75.3577px;" id="elzgcx9rsv7m" class="animable"></path><path d="M371.55,69.73l-.56.16c-.37.09-.88.25-1.49.44A42.29,42.29,0,0,0,365,72.11c-3.42,1.53-5.62,3.8-6.09,3.44-.22-.17.06-1,.93-2.08a12.13,12.13,0,0,1,4.29-3.25,10.77,10.77,0,0,1,5.28-.92,8.41,8.41,0,0,1,1.6.27Z" style="fill: rgb(44, 85, 199); transform-origin: 365.194px 72.4273px;" id="elchf2t2idki8" class="animable"></path><path d="M139.93,108.71a14.36,14.36,0,0,1-2.09-.68c-1.26-.49-2.88-1.32-4.56-2.14a14.15,14.15,0,0,0-4.47-1.34c-1.19-.13-2,0-2.11-.31s.59-.89,2-1.15a9.1,9.1,0,0,1,5.43.93,16.35,16.35,0,0,1,4.23,3.13C139.35,108.08,139.93,108.71,139.93,108.71Z" style="fill: rgb(44, 85, 199); transform-origin: 133.309px 105.857px;" id="eljhj7orj84en" class="animable"></path><path d="M147.27,102.8l-1.52.59c-.9.36-2,.88-3.3,1.44-2.53,1.11-4.68,2.27-5,1.77-.17-.24.17-.8.89-1.51a11.41,11.41,0,0,1,3.32-2.18,7.73,7.73,0,0,1,4-.56,6.38,6.38,0,0,1,1.2.29A4.06,4.06,0,0,1,147.27,102.8Z" style="fill: rgb(44, 85, 199); transform-origin: 142.338px 104.505px;" id="elasftx16rl6j" class="animable"></path><path d="M126.31,113.11l-.42-.25c-.26-.17-.64-.39-1.11-.64a24.9,24.9,0,0,0-3.7-1.61c-2.94-1-5.58-.82-5.66-1.27,0-.2.61-.54,1.74-.7a9.84,9.84,0,0,1,4.43.5,8.77,8.77,0,0,1,3.68,2.47,6.59,6.59,0,0,1,.79,1.08Z" style="fill: rgb(44, 85, 199); transform-origin: 120.865px 110.842px;" id="elqe0e5m62io9" class="animable"></path><path d="M129.19,107l-1.05.61L125.79,109c-1.78,1-3.14,2.11-3.48,1.8-.16-.14,0-.61.45-1.23a7.12,7.12,0,0,1,2.28-1.94,5.94,5.94,0,0,1,2.91-.71A5,5,0,0,1,129.19,107Z" style="fill: rgb(44, 85, 199); transform-origin: 125.72px 108.882px;" id="el4gs3ssav15j" class="animable"></path></g><defs>     <filter id="active" height="200%">         <feMorphology in="SourceAlpha" result="DILATED" operator="dilate" radius="2"></feMorphology>                <feFlood flood-color="#32DFEC" flood-opacity="1" result="PINK"></feFlood>        <feComposite in="PINK" in2="DILATED" operator="in" result="OUTLINE"></feComposite>        <feMerge>            <feMergeNode in="OUTLINE"></feMergeNode>            <feMergeNode in="SourceGraphic"></feMergeNode>        </feMerge>    </filter>    <filter id="hover" height="200%">        <feMorphology in="SourceAlpha" result="DILATED" operator="dilate" radius="2"></feMorphology>                <feFlood flood-color="#ff0000" flood-opacity="0.5" result="PINK"></feFlood>        <feComposite in="PINK" in2="DILATED" operator="in" result="OUTLINE"></feComposite>        <feMerge>            <feMergeNode in="OUTLINE"></feMergeNode>            <feMergeNode in="SourceGraphic"></feMergeNode>        </feMerge>            <feColorMatrix type="matrix" values="0   0   0   0   0                0   1   0   0   0                0   0   0   0   0                0   0   0   1   0 "></feColorMatrix>    </filter></defs></svg>